<?xml version="1.0" standalone="no"?>
<!DOCTYPE svg PUBLIC "-//W3C//DTD SVG 20010904//EN"
 "http://www.w3.org/TR/2001/REC-SVG-20010904/DTD/svg10.dtd">
<svg version="1.0" xmlns="http://www.w3.org/2000/svg"
 width="1024.000000pt" height="1024.000000pt" viewBox="0 0 1024.000000 1024.000000"
 preserveAspectRatio="xMidYMid meet">

<g transform="translate(0.000000,1024.000000) scale(0.100000,-0.100000)"
fill="#000000" stroke="none">
<path d="M4800 8609 c-464 -38 -879 -133 -1245 -287 -322 -135 -598 -294 -854
-492 -118 -92 -171 -144 -171 -171 0 -11 61 -97 136 -192 75 -95 140 -181 145
-192 9 -17 -10 -41 -144 -175 -355 -359 -610 -753 -789 -1220 -338 -883 -329
-1850 27 -2710 194 -469 514 -920 908 -1279 31 -29 57 -54 57 -56 0 -2 -36
-49 -80 -104 -142 -178 -230 -302 -230 -323 0 -42 212 -226 427 -370 438 -295
948 -482 1548 -567 239 -34 422 -44 685 -38 726 18 1390 205 1938 548 241 150
512 377 512 428 0 22 -43 83 -250 354 l-52 68 98 92 c54 51 152 153 219 228
469 527 752 1104 870 1774 13 77 30 190 37 250 16 141 16 595 0 745 -49 453
-154 816 -356 1235 -175 360 -388 662 -684 967 l-133 136 119 149 c145 180
172 219 172 247 0 28 -41 70 -164 168 -409 327 -985 593 -1522 702 -392 80
-872 113 -1224 85z m458 -255 c51 -8 98 -56 112 -113 20 -82 -5 -187 -50 -211
-15 -8 -18 -15 -11 -28 12 -24 71 -234 71 -255 0 -14 -11 -17 -70 -17 l-69 0
-11 43 c-27 104 -54 193 -62 202 -4 5 -8 -24 -9 -65 -1 -41 -2 -97 -2 -125
l-2 -50 -72 -3 -73 -3 0 274 c0 151 3 294 6 318 l6 44 102 -3 c55 -1 116 -5
134 -8z m-344 -16 c3 -13 6 -42 6 -65 l0 -43 -52 0 c-100 0 -109 -11 -92 -100
l7 -32 61 4 61 3 7 -40 c15 -86 16 -85 -58 -85 l-67 0 7 -52 c3 -29 6 -62 6
-72 0 -18 6 -19 79 -13 l79 6 6 -31 c3 -17 6 -45 6 -62 l0 -32 -146 -12 c-81
-7 -148 -11 -150 -9 -5 5 -57 627 -53 631 3 4 183 20 260 25 20 1 28 -5 33
-21z m1021 -47 c46 -27 75 -77 75 -130 0 -73 -7 -77 -82 -60 -62 14 -63 15
-60 45 6 56 -59 73 -72 19 -8 -33 7 -68 60 -132 67 -83 87 -128 86 -193 -1
-87 -31 -143 -94 -176 -55 -28 -166 -10 -216 36 -38 34 -50 78 -44 153 5 63 4
63 81 46 l50 -10 3 -52 c3 -48 5 -52 30 -55 19 -2 30 3 38 18 20 37 3 82 -59
163 -70 91 -85 131 -78 202 6 64 28 109 64 132 53 35 153 32 218 -6z m-1461
-30 c18 -18 38 -49 45 -70 15 -53 14 -143 -3 -166 -12 -17 -11 -20 7 -30 35
-17 65 -72 72 -130 16 -128 -21 -173 -171 -210 -54 -13 -112 -25 -129 -27 -28
-3 -29 -1 -38 47 -4 28 -33 167 -63 309 -30 143 -52 261 -49 264 2 3 51 15
107 28 133 29 179 26 222 -15z m1731 -37 c36 -9 65 -22 65 -28 0 -6 -16 -62
-35 -125 -19 -63 -34 -115 -33 -116 7 -5 71 -25 73 -23 2 2 19 57 39 122 20
66 38 121 40 123 9 9 136 -32 136 -43 0 -7 -5 -25 -10 -39 -6 -15 -47 -142
-91 -283 -45 -141 -85 -264 -90 -274 -9 -16 -13 -16 -66 3 -32 11 -61 23 -65
27 -4 4 10 61 31 125 22 64 36 119 33 121 -4 2 -21 7 -39 10 l-32 7 -31 -103
c-17 -57 -34 -111 -36 -120 -3 -10 -10 -18 -16 -18 -10 0 -121 30 -125 34 -2
2 29 108 67 237 39 129 80 267 92 307 12 39 23 72 25 72 2 0 33 -7 68 -16z
m-2211 -64 c60 -37 114 -175 95 -244 -5 -19 -14 -38 -19 -41 -5 -3 29 -59 75
-125 47 -65 85 -122 85 -127 0 -5 -29 -18 -65 -30 l-66 -21 -72 109 c-40 59
-77 109 -82 109 -6 0 6 -53 27 -117 21 -65 36 -123 34 -129 -2 -5 -29 -19 -60
-29 -48 -16 -58 -17 -66 -6 -15 26 -203 592 -197 597 12 13 215 73 246 74 18
0 48 -9 65 -20z m2811 -143 c21 -12 50 -38 63 -57 20 -29 23 -45 20 -96 -3
-51 -16 -85 -91 -237 -75 -153 -92 -180 -126 -203 -50 -32 -114 -34 -174 -5
-106 51 -130 124 -82 247 44 110 133 294 160 330 49 64 137 72 230 21z m-3270
-65 c27 -37 86 -119 130 -182 173 -245 194 -279 182 -288 -24 -18 -118 -53
-127 -47 -6 4 -20 26 -33 49 l-22 43 -41 -18 -42 -19 21 -55 c11 -30 18 -56
16 -58 -27 -16 -123 -57 -126 -53 -9 8 -53 165 -112 399 -58 227 -59 228 -37
237 11 4 46 19 76 34 30 14 57 25 60 25 3 0 27 -30 55 -67z m3573 -109 c115
-63 170 -108 181 -151 13 -47 3 -86 -40 -155 -47 -75 -78 -106 -118 -117 -41
-11 -101 2 -143 31 l-26 19 -20 -32 c-10 -18 -36 -63 -57 -100 -22 -38 -43
-68 -47 -68 -6 0 -71 37 -116 65 -2 2 267 480 294 523 8 12 17 22 20 22 3 0
36 -16 72 -37z m-3927 -60 c50 -46 89 -120 89 -171 0 -35 3 -40 29 -45 97 -20
164 -177 112 -263 -18 -29 -182 -141 -222 -151 -10 -3 -28 16 -54 59 -21 35
-97 152 -168 260 -71 109 -127 203 -125 209 2 7 55 40 118 75 138 77 162 80
221 27z m2244 -328 c225 -25 495 -88 691 -161 663 -247 1202 -736 1536 -1393
206 -406 319 -839 335 -1281 42 -1184 -720 -2335 -1834 -2768 -966 -376 -2005
-213 -2833 444 -114 91 -326 305 -428 432 -324 405 -533 883 -613 1403 -19
121 -23 186 -23 409 0 277 13 410 64 640 109 491 350 968 671 1330 256 289
510 486 844 655 256 130 540 223 821 270 222 37 547 45 769 20z m-1548 -5833
c71 -27 109 -48 141 -79 l45 -42 -5 -64 c-6 -72 -42 -140 -84 -159 -13 -6 -22
-16 -20 -22 34 -80 31 -143 -12 -220 -60 -109 -127 -118 -312 -42 -63 26 -118
50 -122 54 -4 4 44 144 107 311 63 167 115 306 115 309 0 7 47 -7 147 -46z
m2597 -24 c17 -51 17 -61 -6 -285 -13 -128 -20 -233 -16 -233 4 0 51 16 104
35 53 19 100 35 104 35 7 0 44 -119 38 -125 -13 -12 -384 -133 -388 -127 -13
14 -31 93 -26 110 8 25 47 444 42 449 -2 2 -43 -8 -91 -22 -48 -15 -88 -25
-89 -23 -1 1 -9 31 -18 66 l-16 63 23 9 c13 5 70 23 127 39 57 17 121 37 143
45 22 9 43 15 46 16 3 0 14 -24 23 -52z m-1924 -183 c36 -18 69 -82 70 -131 0
-87 -57 -198 -113 -217 -12 -5 -16 -13 -12 -29 8 -36 44 -282 41 -285 -1 -1
-38 3 -81 10 l-80 12 -17 135 c-10 74 -20 142 -24 150 -9 24 -19 -2 -49 -135
-16 -66 -29 -122 -31 -123 -1 -2 -37 4 -79 13 -61 14 -75 20 -71 34 3 9 21 84
41 166 19 83 54 225 76 316 l41 167 128 -33 c71 -19 143 -41 160 -50z m1434
68 c5 -19 46 -233 91 -478 14 -77 28 -149 31 -161 5 -19 -1 -22 -56 -33 -34
-7 -68 -15 -75 -17 -8 -4 -38 36 -81 108 -37 62 -81 133 -96 158 l-29 45 6
-45 c4 -25 16 -98 26 -164 11 -65 18 -120 16 -122 -4 -4 -141 -33 -144 -31 -3
4 -103 636 -103 654 0 16 12 22 66 32 37 7 70 8 74 4 11 -13 124 -193 155
-246 15 -26 29 -47 30 -45 1 2 -12 75 -31 163 -18 88 -31 161 -30 162 3 4 118
31 133 32 6 1 14 -7 17 -16z m-1038 -111 c-3 -9 -10 -87 -15 -172 -6 -85 -15
-221 -21 -302 -5 -81 -10 -155 -10 -165 0 -16 -8 -18 -82 -13 l-83 5 2 40 c5
92 44 611 47 620 2 6 37 9 85 7 71 -3 81 -6 77 -20z m494 -47 l0 -64 -86 -3
-86 -3 -1 -63 -2 -62 71 0 71 0 6 -62 c3 -34 3 -66 1 -70 -3 -4 -36 -8 -75 -8
l-69 0 0 -76 0 -76 93 3 92 4 3 -61 c4 -76 10 -74 -195 -74 l-153 0 0 153 c0
85 -3 235 -7 335 l-6 181 94 4 c52 1 129 4 172 5 l77 2 0 -65z"/>
<path d="M5160 8169 c0 -72 2 -79 19 -79 28 0 51 38 51 85 0 49 -7 61 -42 67
l-28 5 0 -78z"/>
<path d="M4314 8123 c4 -26 9 -56 12 -65 7 -24 40 -23 58 3 12 17 12 28 2 62
-10 37 -16 42 -45 45 l-33 3 6 -48z"/>
<path d="M4363 7898 c3 -18 9 -54 13 -80 7 -51 23 -61 59 -35 14 11 17 23 13
65 -6 62 -21 82 -60 82 -29 0 -30 -2 -25 -32z"/>
<path d="M3873 8052 c-13 -2 -23 -6 -23 -9 0 -6 42 -147 45 -151 1 -1 14 3 29
9 29 14 33 39 16 101 -12 41 -32 56 -67 50z"/>
<path d="M6649 7843 c-132 -284 -138 -308 -84 -308 28 0 32 6 107 165 43 91
78 175 78 187 0 21 -25 43 -50 43 -6 0 -29 -39 -51 -87z"/>
<path d="M3510 7721 c41 -132 36 -124 62 -110 13 6 24 13 26 14 3 2 -96 167
-108 179 -5 5 4 -33 20 -83z"/>
<path d="M7061 7639 c-22 -39 -38 -75 -35 -80 12 -20 63 -9 83 17 31 40 47
100 31 119 -22 27 -37 17 -79 -56z"/>
<path d="M3038 7666 c-16 -12 -15 -17 18 -69 20 -32 39 -57 43 -57 4 0 16 9
26 20 20 23 15 54 -16 93 -22 29 -45 33 -71 13z"/>
<path d="M3178 7463 c-10 -2 -18 -9 -18 -14 0 -13 73 -129 81 -129 4 0 17 8
29 18 28 23 23 55 -16 101 -25 30 -38 34 -76 24z"/>
<path d="M5140 6808 c-36 -5 -78 -9 -95 -9 -16 0 -77 2 -135 3 -120 3 -209
-19 -315 -77 -42 -23 -80 -35 -125 -40 -314 -34 -630 -210 -771 -429 -63 -96
-82 -157 -83 -266 -1 -88 1 -100 32 -162 22 -45 52 -84 93 -122 33 -31 56 -56
51 -56 -5 0 -31 -19 -57 -42 -91 -80 -103 -152 -60 -368 25 -127 48 -293 60
-432 l7 -78 -32 0 c-45 0 -94 -33 -116 -78 -29 -57 -26 -302 5 -432 49 -209
98 -350 149 -423 26 -39 96 -87 125 -87 15 0 17 -15 18 -117 0 -65 3 -130 5
-145 6 -36 -1 -35 -34 3 -36 42 -51 77 -52 121 0 20 -5 40 -11 44 -23 14 -89
-96 -89 -149 0 -48 45 -132 91 -168 l39 -31 -6 -81 c-10 -131 27 -269 107
-401 22 -37 53 -103 69 -145 38 -106 52 -130 110 -194 53 -59 114 -102 128
-93 5 3 7 20 4 38 -4 30 -2 29 22 -19 34 -65 92 -131 167 -188 52 -41 170
-107 177 -101 1 2 -5 23 -13 47 l-15 44 23 -25 c12 -14 36 -43 52 -64 17 -21
51 -53 76 -71 41 -31 165 -105 175 -105 2 0 4 14 4 31 l0 32 26 -39 c33 -49
64 -83 87 -95 14 -8 29 1 74 43 64 60 137 155 160 208 8 19 17 30 19 24 7 -16
-32 -116 -61 -158 l-25 -36 28 6 c82 18 114 30 187 66 180 91 263 162 345 297
64 108 65 78 2 -52 -12 -24 86 41 144 96 87 81 147 172 180 272 20 60 38 92
71 127 96 104 149 270 141 444 l-5 103 38 36 c93 88 104 207 26 293 -29 31
-37 28 -37 -18 0 -43 -27 -107 -55 -130 -8 -7 -17 -11 -19 -9 -1 2 -1 61 2
130 l4 125 44 13 c52 15 102 68 138 146 29 60 101 291 122 390 22 101 29 268
15 338 -18 82 -80 147 -141 147 -11 0 -20 6 -20 14 0 42 46 319 72 436 32 146
33 198 2 263 -17 36 -17 37 5 61 61 64 87 263 57 417 -22 106 -42 152 -93 210
-26 30 -42 61 -46 86 -12 75 -115 200 -219 266 -71 46 -151 74 -259 93 -125
21 -155 34 -248 102 -82 62 -157 96 -244 113 -78 14 -227 18 -297 7z m317 -92
c67 -18 109 -51 171 -135 103 -138 187 -190 322 -201 85 -6 85 -6 37 -14 -120
-21 -252 26 -331 117 -26 29 -61 72 -79 96 -43 59 -92 97 -163 126 -67 28 -43
34 43 11z m-179 -156 c37 -17 99 -53 137 -79 39 -27 102 -60 140 -74 92 -34
66 -34 -43 -1 -94 29 -114 39 -182 95 -25 20 -64 46 -87 58 -38 19 -53 31 -38
31 3 0 36 -14 73 -30z m301 -105 c21 -19 57 -46 82 -59 24 -14 36 -26 27 -26
-25 0 -123 55 -183 103 -29 23 -65 52 -81 64 -20 15 -6 11 44 -13 41 -20 91
-51 111 -69z m-834 41 c-72 -29 -144 -61 -160 -71 -28 -16 -27 -15 5 15 41 36
99 65 184 91 114 33 101 19 -29 -35z m225 20 c0 -2 -28 -17 -62 -34 -184 -86
-324 -209 -374 -328 -25 -62 -28 -81 -29 -182 l0 -114 -18 39 c-14 31 -17 58
-14 143 3 99 5 109 42 180 70 134 166 206 367 275 74 25 88 28 88 21z m145
-73 c14 -6 -3 -10 -56 -13 -139 -10 -270 -95 -361 -235 -52 -80 -72 -151 -72
-255 1 -70 6 -96 27 -143 38 -83 82 -141 135 -175 121 -77 184 -88 277 -49 33
13 71 28 85 32 24 6 24 6 -5 -20 -21 -19 -24 -25 -10 -20 10 3 40 9 65 13 43
6 44 6 15 13 -28 6 -29 7 -4 8 41 2 143 -35 275 -99 169 -81 183 -85 371 -85
160 0 180 -5 73 -20 l-55 -8 40 -18 c22 -10 54 -21 70 -26 29 -7 29 -8 -13
-11 l-42 -3 24 -32 c46 -62 66 -114 66 -172 0 -53 2 -58 43 -98 67 -65 86
-113 109 -272 16 -118 16 -477 0 -580 -19 -115 -61 -290 -89 -365 -55 -151
-73 -174 -73 -92 0 34 -3 43 -10 32 -5 -8 -10 -23 -10 -33 0 -15 -74 -199 -87
-216 -10 -14 -11 16 -2 107 10 106 37 199 91 306 16 32 28 60 25 62 -6 7 -74
-97 -106 -161 -52 -107 -60 -189 -34 -333 l6 -34 -33 17 c-18 9 -75 50 -127
91 -158 123 -279 172 -453 181 l-95 5 -59 -36 c-32 -20 -65 -36 -73 -36 -8 0
-42 17 -75 37 -54 33 -67 37 -127 36 -144 -1 -269 -52 -445 -181 -111 -81
-154 -107 -164 -97 -4 4 -7 68 -7 143 -1 152 -4 165 -86 303 -55 93 -65 96
-24 7 52 -113 76 -195 85 -293 13 -132 8 -131 -44 9 -20 55 -44 111 -51 125
-14 24 -15 23 -8 -29 6 -51 5 -54 -11 -41 -22 19 -35 50 -79 196 -66 220 -72
268 -72 585 0 277 6 359 37 484 11 41 21 55 64 88 72 54 79 76 79 246 l0 142
42 20 c24 11 50 20 58 20 8 0 15 4 15 9 0 5 -17 5 -41 0 -23 -6 -44 -8 -46 -5
-6 5 81 52 146 79 38 15 203 46 251 47 13 0 13 1 0 10 -11 7 4 10 50 10 l65 0
-51 29 c-160 92 -260 309 -224 487 15 73 60 161 107 205 l35 34 -36 -53 c-61
-92 -87 -224 -66 -342 19 -110 101 -254 181 -317 8 -7 40 -19 70 -27 30 -8 63
-18 74 -22 11 -4 -5 17 -35 47 -74 73 -108 138 -121 237 -19 131 1 224 76 352
l27 45 -37 -40 c-32 -34 -35 -35 -20 -10 60 100 156 169 280 201 51 14 164 12
200 -3z m-793 -36 c-35 -37 -90 -164 -103 -239 -15 -85 -2 -183 36 -265 13
-29 21 -53 19 -53 -12 0 -47 48 -72 100 -24 49 -27 66 -27 160 0 99 2 109 34
174 19 39 54 88 79 112 46 44 73 53 34 11z m-231 -71 c-52 -84 -75 -263 -48
-366 13 -48 13 -52 1 -35 -8 11 -22 44 -31 74 -30 104 -4 241 63 328 33 43 41
42 15 -1z m48 -107 c-33 -105 -24 -216 26 -332 23 -56 4 -38 -28 25 -56 111
-59 208 -8 323 28 63 32 56 10 -16z m941 16 c0 -2 -17 -13 -37 -24 -76 -38
-178 -164 -211 -260 -19 -55 -6 -47 28 18 79 148 294 254 475 235 l70 -8 -91
-11 c-114 -15 -177 -36 -251 -84 -123 -80 -201 -189 -229 -322 -8 -39 -12 -91
-9 -115 7 -60 -8 -49 -30 23 -39 123 -14 273 66 392 44 67 86 102 162 136 60
28 57 26 57 20z m-1205 -168 c0 -101 1 -106 39 -180 22 -43 61 -100 89 -128
44 -45 47 -49 19 -35 -105 54 -172 183 -172 330 0 34 16 116 23 116 1 0 2 -47
2 -103z m1445 27 c-111 -20 -192 -64 -281 -153 -42 -42 -88 -98 -101 -126 -32
-63 -50 -147 -42 -194 4 -27 3 -32 -5 -21 -15 21 -14 139 3 191 63 206 211
319 416 318 l85 -1 -75 -14z m-1493 -205 c52 -110 139 -178 266 -210 66 -16
59 -26 -15 -19 -190 17 -331 195 -301 380 l7 45 6 -66 c4 -42 17 -88 37 -130z
m2003 157 c0 -11 -106 -68 -159 -86 -32 -10 -110 -24 -172 -30 -199 -18 -325
-64 -413 -148 l-49 -47 31 46 c32 48 110 113 177 147 52 26 125 39 258 47 107
6 238 34 287 60 27 14 40 18 40 11z m120 -61 c-56 -57 -155 -115 -228 -134
-23 -7 -92 -16 -154 -22 -61 -5 -139 -16 -172 -25 -68 -17 -182 -72 -236 -112
l-34 -26 29 37 c37 47 128 109 199 136 33 12 103 24 179 31 189 16 296 51 412
134 27 20 52 36 55 36 2 0 -20 -25 -50 -55z m201 -14 c-25 -116 -118 -256
-215 -325 -100 -71 -160 -89 -311 -92 -125 -2 -126 -2 -42 6 99 9 201 39 267
77 43 26 43 46 0 23 -33 -18 -113 -40 -140 -39 -18 1 -12 5 20 14 141 41 196
73 281 162 67 71 107 131 130 195 18 51 23 40 10 -21z m-85 -20 c-22 -42 -105
-112 -171 -145 -77 -37 -169 -51 -270 -40 l-80 8 96 7 c149 10 264 55 374 147
33 28 61 51 63 51 1 1 -4 -12 -12 -28z m-2323 -128 c60 -90 141 -157 222 -185
43 -15 46 -17 20 -18 -42 0 -126 41 -168 83 -37 38 -89 110 -100 140 -10 27
-2 20 26 -20z m2517 -183 c-64 -81 -231 -179 -339 -200 -73 -14 -76 -6 -5 15
32 9 77 26 99 37 59 30 195 121 234 157 46 42 49 39 11 -9z m-2352 -109 c9 -5
0 -10 -28 -15 -52 -8 -95 -30 -128 -64 l-25 -27 19 33 c11 20 38 42 68 57 53
27 73 30 94 16z m-69 -99 c-24 -16 -57 -50 -73 -76 -37 -58 -48 -52 -13 7 24
40 57 71 97 89 36 16 30 6 -11 -20z m2471 -132 c33 -52 59 -113 59 -140 0 -8
-11 12 -24 45 -14 33 -38 79 -55 103 -16 23 -26 42 -21 42 5 0 23 -23 41 -50z
m-2532 -694 c18 -21 34 -55 42 -88 22 -100 50 -433 50 -591 l0 -159 -32 19
c-45 26 -75 85 -115 222 -59 204 -85 344 -85 468 0 137 11 163 71 163 32 0 44
-6 69 -34z m2699 26 c42 -27 45 -209 7 -375 -63 -275 -127 -447 -175 -473 -53
-27 -61 -21 -55 44 3 31 11 147 17 257 14 255 34 436 53 472 33 65 110 102
153 75z m-1742 -1002 c-3 -5 -10 -10 -16 -10 -5 0 -31 -16 -57 -35 -27 -19
-72 -45 -101 -58 -28 -14 -59 -31 -69 -40 -46 -39 -188 -130 -235 -148 -153
-62 -284 -76 -363 -40 -96 44 -155 129 -139 202 9 40 21 36 29 -9 7 -49 60
-110 122 -142 106 -54 250 -26 447 86 61 35 113 64 116 64 3 0 36 21 75 47 87
58 208 111 191 83z m753 -31 c20 -13 82 -53 137 -89 218 -145 319 -185 449
-178 57 3 94 11 123 26 83 43 143 111 143 164 0 33 20 9 26 -33 9 -52 -44
-123 -126 -168 -112 -61 -245 -55 -425 20 -91 37 -162 83 -280 178 -49 40
-102 80 -117 89 -15 9 -28 20 -28 23 0 12 57 -7 98 -32z m-673 -17 c-6 -4 -36
-25 -67 -46 -32 -21 -74 -57 -95 -80 -156 -173 -376 -288 -548 -285 -89 2
-109 17 -23 18 155 2 307 79 518 261 52 45 120 95 150 111 53 27 84 38 65 21z
m635 -59 c58 -30 139 -81 181 -113 131 -101 243 -157 379 -189 42 -10 40 -10
-25 -5 -80 6 -197 42 -271 85 -65 37 -249 171 -253 184 -5 17 -23 35 -34 35
-6 0 -2 -7 9 -15 10 -8 14 -15 9 -15 -6 0 -42 23 -80 51 -85 62 -57 56 85 -18z
m-601 4 c-20 -12 -63 -54 -95 -93 -33 -40 -68 -77 -79 -84 -16 -10 -15 -7 4
14 28 30 20 34 -17 8 -59 -41 -53 -31 23 43 44 42 103 90 130 106 58 34 87 39
34 6z m-337 -80 c-42 -40 -103 -92 -135 -116 -62 -45 -196 -111 -225 -110 -9
0 6 9 33 20 51 21 100 56 235 165 79 64 150 114 162 114 4 0 -28 -33 -70 -73z
m820 44 c25 -16 60 -47 78 -70 39 -48 106 -94 188 -127 40 -17 50 -24 32 -24
-58 0 -196 84 -310 189 -70 65 -64 80 12 32z m-167 -64 c59 -30 67 -37 50 -43
-29 -12 -365 -9 -365 3 0 5 125 66 160 78 42 14 62 9 155 -38z m-120 -112 c39
1 107 4 152 9 l81 9 114 -61 c62 -33 132 -66 155 -72 l42 -13 -37 -44 c-20
-24 -57 -58 -82 -74 -39 -27 -52 -30 -97 -27 -36 3 -64 13 -94 34 -23 16 -50
34 -61 40 -17 10 -14 12 24 18 46 8 134 43 126 51 -3 3 -34 -3 -69 -12 -52
-15 -104 -18 -279 -18 -133 0 -229 5 -252 12 -21 6 -38 8 -38 3 0 -11 52 -28
120 -38 l55 -8 -82 -42 c-94 -48 -142 -53 -202 -22 -39 19 -111 94 -111 114 0
6 28 22 63 35 34 13 92 41 129 63 90 53 111 58 198 50 41 -4 107 -7 145 -7z
m1100 -430 c0 -92 -4 -128 -17 -155 l-17 -35 7 70 c4 39 7 116 7 172 0 72 3
97 10 85 6 -9 10 -71 10 -137z m-2120 31 c0 -63 -1 -113 -3 -111 -1 1 -7 31
-13 66 -7 45 -7 76 1 111 7 26 13 48 13 48 1 0 2 -51 2 -114z m154 9 c1 -72
18 -169 40 -227 20 -54 0 -27 -34 44 -27 56 -35 85 -35 128 0 49 15 130 25
130 2 0 3 -34 4 -75z m671 -36 c-11 -27 -42 -83 -69 -122 -105 -156 -128 -244
-97 -377 4 -14 -6 0 -21 30 -59 116 -27 244 95 381 32 36 69 83 81 103 12 20
24 36 27 36 2 0 -5 -23 -16 -51z m505 -70 c19 -36 37 -84 41 -106 8 -53 -11
-167 -40 -228 l-22 -49 4 65 c2 36 -1 92 -8 124 -11 54 -87 214 -132 278 -11
15 -16 27 -11 26 13 0 103 -112 135 -168 17 -29 32 -50 34 -48 2 2 -14 48 -37
103 -54 134 -54 133 -25 99 14 -16 42 -60 61 -96z m-585 92 c0 -12 -112 -162
-117 -157 -8 7 20 53 67 110 48 59 50 61 50 47z m156 -29 c-20 -56 -52 -117
-90 -170 -43 -61 -66 -106 -82 -162 l-12 -45 -1 60 c-1 77 20 122 103 225 36
44 68 91 72 105 3 14 10 25 15 25 4 0 2 -17 -5 -38z m588 -49 c10 -28 16 -77
15 -122 -1 -86 -9 -69 -28 59 -7 41 -14 86 -18 99 -11 43 14 14 31 -36z
m-1048 15 c-48 -73 -71 -294 -42 -392 19 -63 -2 -46 -35 27 -46 103 -27 239
50 351 33 47 57 60 27 14z m1256 -23 c44 -115 31 -217 -42 -330 -27 -41 -51
-75 -54 -75 -2 0 11 40 30 90 45 120 59 206 47 298 -10 77 -5 81 19 17z m212
-90 c0 -63 -5 -91 -23 -132 -13 -29 -28 -53 -33 -53 -5 0 -3 10 4 23 7 13 14
78 17 167 4 141 4 144 20 110 9 -22 15 -64 15 -115z m-769 -198 c28 -94 13
-228 -36 -315 -11 -20 -17 -28 -14 -17 4 11 11 34 17 50 15 47 11 262 -6 325
-14 55 -14 55 5 32 10 -13 26 -47 34 -75z m-275 -99 c-1 -102 9 -177 29 -231
17 -44 -4 -23 -28 29 -33 69 -43 138 -31 208 23 129 30 127 30 -6z m600 -156
c0 -34 -42 -122 -71 -148 -16 -14 -12 -2 15 47 20 36 36 80 36 97 0 18 5 32
10 32 6 0 10 -13 10 -28z"/>
<path d="M4269 4916 c-51 -18 -91 -48 -138 -105 -62 -74 -100 -175 -41 -107
45 51 109 79 183 78 67 0 424 -86 504 -122 24 -10 50 -17 58 -13 33 12 32 121
-1 152 -15 15 -16 15 -11 -1 11 -31 -5 -27 -42 11 -34 35 -43 39 -141 55 -58
10 -150 29 -205 42 -114 27 -117 28 -166 10z"/>
<path d="M5670 4904 c-25 -8 -100 -23 -168 -34 -123 -20 -177 -39 -199 -69 -6
-9 -19 -25 -28 -36 -16 -20 -16 -20 -9 4 4 15 3 21 -5 17 -16 -10 -31 -76 -24
-105 10 -46 21 -52 56 -31 18 10 88 33 157 50 69 17 163 42 210 57 58 18 108
27 155 27 76 0 101 -9 179 -69 25 -19 46 -30 46 -25 0 6 -12 33 -26 61 -30 61
-102 135 -149 155 -43 18 -136 17 -195 -2z"/>
<path d="M4413 4679 c-29 -4 -72 -17 -97 -29 -47 -22 -126 -102 -126 -126 0
-17 -3 -16 38 -5 30 9 33 7 47 -19 20 -38 40 -51 30 -19 -4 13 -10 29 -12 35
-5 13 22 43 65 73 l32 22 0 -26 c0 -37 25 -92 48 -104 12 -6 39 -11 62 -11 50
0 86 31 96 85 l7 37 38 -38 c22 -21 41 -45 44 -54 3 -8 18 -21 35 -27 28 -10
30 -10 30 11 0 24 -41 86 -81 123 -31 28 -124 70 -169 75 -19 2 -58 1 -87 -3z
m56 -77 c7 -13 6 -23 -1 -30 -26 -26 -64 -2 -47 30 5 10 16 18 24 18 8 0 19
-8 24 -18z"/>
<path d="M5516 4665 c-63 -24 -105 -54 -136 -99 -47 -69 -51 -126 -6 -80 15
14 17 14 32 0 23 -24 37 -19 19 7 -14 22 -13 25 23 58 66 62 67 62 70 16 5
-72 66 -117 128 -97 44 15 74 54 74 96 0 19 4 34 9 34 5 0 28 -17 52 -39 41
-36 43 -40 31 -66 -18 -39 -8 -42 17 -6 20 27 24 29 52 19 39 -13 44 -7 25 31
-22 42 -62 78 -121 109 -41 21 -66 26 -140 29 -62 2 -102 -2 -129 -12z m82
-71 c2 -15 -3 -23 -17 -27 -25 -6 -44 14 -35 37 9 24 48 16 52 -10z"/>
<path d="M4905 4553 c-8 -76 0 -242 14 -318 6 -37 8 -34 14 39 13 148 5 356
-14 356 -4 0 -11 -35 -14 -77z"/>
<path d="M5525 4390 c17 -11 44 -20 60 -20 25 1 21 4 -25 20 -69 24 -72 24
-35 0z"/>
<path d="M4545 4380 c-19 -8 -19 -9 2 -9 12 -1 25 4 28 9 7 12 -2 12 -30 0z"/>
<path d="M5270 4038 c0 -2 11 -30 25 -63 31 -76 31 -119 0 -172 -19 -35 -21
-43 -8 -43 8 0 29 14 45 32 27 29 30 37 26 84 -3 40 -14 66 -43 108 -34 49
-45 63 -45 54z"/>
<path d="M4798 4002 c-34 -36 -58 -85 -58 -119 0 -39 35 -93 60 -93 25 0 25 2
0 42 -26 43 -25 72 5 137 14 30 24 55 22 57 -2 2 -15 -9 -29 -24z"/>
<path d="M4848 3849 c-31 -17 -22 -39 12 -32 23 4 49 -3 101 -27 78 -36 110
-35 184 3 22 12 63 24 90 27 l50 5 -32 18 c-45 24 -74 21 -124 -13 -56 -37
-85 -37 -159 0 -62 31 -93 36 -122 19z"/>
<path d="M3670 4530 c11 -21 21 -61 22 -87 1 -40 2 -42 5 -14 l5 35 30 -48 30
-49 -16 -57 c-9 -31 -16 -77 -16 -103 0 -48 37 -161 66 -200 16 -22 16 -22 10
8 -28 153 -29 155 -12 220 22 86 20 101 -13 162 -34 62 -113 172 -124 172 -4
1 2 -17 13 -39z"/>
<path d="M6457 4539 c-47 -36 -137 -180 -137 -221 0 -10 9 -47 21 -81 21 -62
22 -103 3 -217 -5 -33 -4 -34 11 -15 9 11 25 50 36 88 22 70 22 97 0 215 -11
62 -11 65 18 115 l31 52 0 -38 c0 -23 -4 -36 -10 -32 -5 3 -10 2 -10 -4 0 -5
5 -13 10 -16 6 -4 17 -21 25 -38 13 -30 14 -27 9 49 -5 68 -3 87 14 122 23 47
19 51 -21 21z"/>
<path d="M5340 3476 c0 -2 8 -10 18 -17 15 -13 16 -12 3 4 -13 16 -21 21 -21
13z"/>
<path d="M2715 5451 c-74 -34 -108 -97 -98 -180 5 -41 2 -55 -12 -71 -15 -16
-16 -29 -10 -82 11 -85 11 -950 1 -1010 -20 -113 64 -243 169 -262 78 -15 164
35 205 119 21 44 22 55 25 583 1 295 6 560 10 588 6 47 5 53 -16 68 -20 14
-23 24 -24 90 0 88 -17 119 -85 154 -53 27 -111 28 -165 3z m121 -43 c5 -8 -5
-9 -34 -5 -23 3 -40 2 -37 -2 2 -5 -7 -13 -20 -19 -19 -9 -24 -9 -22 1 6 31
97 51 113 25z m-133 -38 c-3 -11 -9 -20 -14 -20 -5 0 -9 -7 -9 -15 0 -8 -4
-15 -10 -15 -12 0 -2 29 18 53 19 22 21 21 15 -3z m247 -250 c0 -19 -7 -20
-149 -20 -143 0 -171 5 -156 30 4 6 67 10 156 10 142 0 149 -1 149 -20z m-224
-120 c-35 -33 -66 -60 -69 -60 -9 0 -9 105 0 113 3 4 34 7 69 7 l62 0 -62 -60z
m122 53 c-10 -2 -26 -2 -35 0 -10 3 -2 5 17 5 19 0 27 -2 18 -5z m97 -69 l0
-49 -147 -145 -148 -144 0 65 0 65 134 133 c74 73 141 131 148 129 8 -3 13
-22 13 -54z m-37 -401 c-24 -21 -90 -84 -148 -140 l-105 -102 -3 66 -3 67 148
148 148 148 3 -74 3 -75 -43 -38z m-55 -346 l-97 -97 -53 0 c-43 0 -53 3 -53
17 0 10 66 85 148 168 l147 150 3 -70 3 -70 -98 -98z m87 -167 c0 -19 -7 -20
-144 -20 -138 0 -166 6 -151 30 4 6 65 10 151 10 137 0 144 -1 144 -20z"/>
<path d="M7365 5459 c-37 -14 -82 -55 -102 -93 -11 -21 -13 -43 -9 -80 6 -44
4 -56 -15 -80 -18 -23 -21 -36 -16 -78 4 -27 11 -56 17 -63 8 -10 11 -167 9
-537 -2 -483 -1 -526 16 -558 22 -44 62 -88 98 -106 41 -22 117 -20 163 4 49
25 68 46 94 105 19 42 20 60 16 170 -19 404 -14 827 10 988 5 40 3 50 -15 68
-18 18 -22 35 -24 94 -2 81 -25 125 -79 153 -39 20 -124 27 -163 13z m82 -46
c-12 -12 -88 -42 -82 -33 9 15 -11 12 -24 -3 -6 -8 -7 -18 -3 -22 4 -5 1 -5
-5 -1 -8 4 -13 1 -13 -8 0 -8 -4 -18 -10 -21 -5 -3 -10 -1 -10 5 0 18 68 82
80 75 5 -3 18 -1 27 4 20 11 50 15 40 4z m143 -293 c0 -19 -7 -20 -154 -20
-93 0 -157 4 -161 10 -15 25 13 30 161 30 147 0 154 -1 154 -20z m-185 -168
l-110 -107 -3 67 -3 66 43 41 c42 39 45 41 113 41 l70 0 -110 -108z m172 102
c-3 -3 -12 -4 -19 -1 -8 3 -5 6 6 6 11 1 17 -2 13 -5z m13 -150 l0 -66 -150
-147 -150 -146 0 65 0 65 141 148 c78 81 145 147 150 147 5 0 9 -30 9 -66z
m-147 -527 l-148 -147 -3 68 -3 67 148 145 148 145 3 -65 3 -66 -148 -147z
m146 -79 c-2 -77 -3 -83 -37 -120 l-34 -38 -82 0 -82 0 115 118 c64 66 117
120 119 120 2 1 2 -35 1 -80z m-4 -228 c0 -13 -24 -15 -147 -18 -144 -2 -148
-2 -148 18 0 20 4 20 148 18 123 -3 147 -5 147 -18z"/>
<path d="M7549 4208 c-12 -23 -12 -23 10 -4 23 21 26 26 11 26 -5 0 -15 -10
-21 -22z"/>
<path d="M3807 1433 c-14 -37 -25 -68 -24 -69 1 -1 19 -5 39 -9 34 -7 39 -5
57 26 28 45 27 84 -1 103 -12 9 -27 16 -33 16 -6 0 -23 -30 -38 -67z"/>
<path d="M3739 1233 c-55 -143 -55 -135 0 -150 31 -8 67 31 77 82 8 45 2 61
-36 80 -30 15 -30 15 -41 -12z"/>
<path d="M4366 1265 c-10 -42 -16 -79 -13 -82 3 -3 20 -6 38 -6 27 -2 36 3 47
27 8 15 16 45 19 65 6 40 -5 55 -48 66 -24 6 -26 4 -43 -70z"/>
</g>
</svg>
