<?xml version="1.0" standalone="no"?>
<!DOCTYPE svg PUBLIC "-//W3C//DTD SVG 20010904//EN"
 "http://www.w3.org/TR/2001/REC-SVG-20010904/DTD/svg10.dtd">
<svg version="1.0" xmlns="http://www.w3.org/2000/svg"
 width="1024.000000pt" height="1008.000000pt" viewBox="0 0 1024.000000 1008.000000"
 preserveAspectRatio="xMidYMid meet">

<g transform="translate(0.000000,1008.000000) scale(0.100000,-0.100000)"
fill="#000000" stroke="none">
<path d="M4895 8553 c-398 -20 -867 -115 -1200 -243 -88 -34 -167 -63 -176
-66 -10 -4 -55 42 -145 146 -110 129 -132 150 -152 145 -62 -15 -432 -207
-432 -223 0 -4 14 -56 30 -117 63 -235 75 -288 64 -292 -6 -2 -80 -53 -164
-114 -134 -98 -155 -110 -174 -100 -12 6 -88 51 -170 101 l-149 89 -31 -25
c-33 -28 -162 -153 -265 -257 l-63 -65 60 -98 c32 -55 87 -143 121 -196 33
-54 61 -100 61 -104 0 -3 -27 -40 -60 -82 -32 -43 -78 -101 -100 -129 -22 -29
-48 -53 -56 -53 -15 0 -64 14 -279 80 -154 47 -138 49 -186 -22 -48 -70 -199
-353 -199 -372 0 -12 91 -103 248 -248 l83 -76 -19 -44 c-10 -23 -34 -81 -51
-128 -18 -47 -37 -96 -42 -108 l-9 -24 -219 7 -218 8 -26 -84 c-27 -89 -81
-299 -91 -361 l-7 -36 123 -65 c68 -36 156 -82 196 -103 74 -38 74 -38 68 -74
-3 -19 -10 -80 -16 -135 -18 -161 6 -141 -230 -199 l-205 -51 -8 -90 c-8 -91
-2 -371 9 -412 4 -15 14 -23 28 -23 11 -1 104 -22 206 -48 l185 -47 2 -45 c2
-25 10 -94 19 -154 17 -105 17 -109 -2 -120 -10 -6 -66 -36 -124 -66 -142 -75
-239 -130 -244 -139 -8 -12 44 -237 87 -376 l24 -80 224 0 224 0 26 -70 c27
-74 31 -85 60 -154 25 -58 24 -76 -6 -100 -47 -36 -276 -255 -285 -271 -6 -10
8 -48 44 -120 49 -100 172 -300 184 -300 3 0 69 19 146 41 210 62 280 79 287
71 3 -4 27 -38 54 -77 27 -38 67 -91 88 -117 l40 -47 -43 -68 c-24 -38 -53
-84 -65 -103 -12 -19 -45 -73 -74 -119 -28 -46 -51 -90 -49 -97 2 -8 74 -88
161 -179 168 -174 181 -183 228 -146 13 10 80 51 149 91 69 40 138 81 153 92
32 23 19 29 152 -77 48 -38 96 -77 108 -86 21 -17 19 -29 -100 -440 -3 -12 31
-39 124 -99 70 -46 153 -97 183 -113 30 -16 65 -39 77 -50 33 -29 62 -16 127
58 32 36 62 65 67 65 4 0 63 -27 131 -59 68 -33 164 -76 213 -97 50 -20 96
-42 103 -47 10 -8 13 -36 11 -106 l-3 -96 49 -18 c120 -45 412 -126 432 -120
6 2 33 40 60 84 56 92 48 89 198 59 55 -11 152 -26 215 -33 l114 -12 12 -35
c7 -19 20 -65 30 -102 l17 -67 42 -6 c53 -8 461 -2 470 7 4 3 18 48 31 99 13
51 27 96 32 100 4 5 56 13 116 19 60 6 146 18 190 26 45 8 102 17 127 20 l46
6 48 -81 c27 -45 52 -84 56 -87 10 -6 266 65 389 108 l95 33 3 102 3 102 42
19 c23 11 87 39 142 62 55 23 134 60 176 81 41 22 80 39 85 39 5 0 41 -31 79
-70 38 -38 73 -70 76 -70 17 0 390 227 416 253 13 12 8 36 -32 178 -72 250
-75 262 -63 277 6 7 62 53 124 103 l113 90 128 -77 c70 -43 151 -92 180 -111
29 -18 61 -33 72 -33 23 0 341 325 341 348 0 14 -19 47 -117 199 -18 29 -33
55 -33 58 0 3 -16 29 -35 58 -19 28 -35 57 -35 64 0 7 33 55 73 107 39 51 81
105 92 120 l20 27 125 -37 c205 -59 302 -85 304 -82 1 2 23 35 48 73 54 84
112 188 153 274 l30 64 -163 156 -163 156 46 120 c25 66 51 131 58 145 l13 25
218 0 219 0 27 85 c26 80 71 262 85 341 7 36 6 37 -52 67 -68 35 -279 149
-308 167 l-21 13 19 148 c10 82 21 152 25 156 4 4 72 23 152 43 80 20 161 40
181 45 20 6 45 10 56 10 17 0 21 9 26 68 9 86 8 353 -1 412 -7 42 -10 46 -47
56 -79 22 -172 45 -265 66 -52 11 -98 23 -102 27 -6 5 -39 237 -42 296 -1 20
11 27 272 167 l114 61 -7 36 c-13 73 -64 278 -90 359 l-26 84 -220 -4 -220 -3
-56 149 -55 150 73 70 c41 39 116 110 167 158 l92 88 -36 72 c-30 61 -172 311
-203 356 -7 11 -28 8 -117 -18 -250 -72 -315 -90 -327 -90 -6 0 -30 25 -51 56
-21 31 -65 89 -97 129 l-59 73 95 159 c52 87 103 172 114 188 10 17 22 36 26
43 4 9 -17 38 -61 85 -99 104 -276 267 -290 267 -12 0 -117 -59 -249 -140 -44
-28 -84 -50 -89 -50 -6 0 -35 19 -65 43 -31 24 -102 76 -159 116 -75 53 -102
77 -98 89 18 62 67 249 81 311 l18 74 -24 18 c-30 24 -376 195 -409 204 -23 5
-36 -7 -130 -120 -58 -70 -114 -138 -125 -151 -25 -29 -35 -30 -83 -5 -142 71
-520 179 -822 234 -292 54 -654 76 -965 60z m625 -83 c58 -5 130 -14 160 -20
30 -5 132 -24 225 -40 94 -17 184 -35 200 -40 17 -5 80 -23 140 -41 121 -34
214 -64 260 -84 17 -7 58 -23 93 -36 60 -23 79 -39 46 -39 -8 0 -12 -5 -9 -10
4 -6 10 -8 15 -5 5 3 12 0 16 -6 9 -14 -44 -4 -106 22 -25 10 -85 30 -135 44
-49 15 -106 33 -125 40 -31 13 -225 58 -363 86 -127 26 -317 51 -334 45 -6 -3
-13 -1 -15 3 -2 4 -38 11 -80 14 -77 5 -78 5 -78 -19 0 -15 6 -24 15 -24 8 0
15 -9 15 -20 0 -23 18 -27 26 -5 12 31 34 16 34 -24 0 -42 -18 -65 -44 -55 -9
3 -16 1 -16 -4 0 -6 -8 -13 -17 -15 -10 -3 3 -5 30 -6 35 -1 47 -5 47 -16 0
-10 -10 -15 -27 -16 l-28 -1 27 -9 c23 -9 26 -15 22 -44 -4 -36 10 -55 29 -36
8 8 6 11 -6 11 -9 0 -17 5 -17 10 0 6 5 10 11 10 7 0 9 10 5 25 -10 39 3 69
35 84 16 7 29 20 29 29 1 13 7 10 26 -12 27 -30 28 -56 4 -64 -12 -4 -13 -2
-2 9 17 19 15 29 -8 29 -14 0 -18 -5 -14 -17 4 -13 3 -14 -3 -5 -12 15 -43 5
-43 -14 0 -8 9 -19 20 -26 24 -15 26 -28 5 -28 -17 0 -19 -9 -5 -30 9 -13 11
-13 19 0 6 8 13 11 18 7 4 -5 1 -12 -7 -17 -12 -7 -12 -11 1 -27 13 -16 12
-17 -3 -5 -24 19 -46 11 -26 -9 10 -9 12 -21 7 -34 -11 -28 -11 -35 1 -35 6 0
10 8 10 17 0 9 2 14 5 11 11 -10 -8 -69 -20 -64 -7 2 -20 -3 -29 -13 -20 -22
-20 -31 -1 -31 17 0 20 -16 6 -25 -5 -3 -7 -21 -4 -40 5 -31 3 -35 -16 -35
-11 0 -21 -5 -21 -11 0 -18 -28 -39 -44 -33 -9 3 -16 1 -16 -5 0 -6 7 -11 16
-11 14 0 14 -3 4 -16 -8 -8 -22 -20 -33 -26 -17 -9 -19 -8 -14 6 5 14 3 16
-13 11 -15 -5 -21 0 -26 22 -4 15 -11 34 -16 40 -6 7 -7 20 -4 29 6 15 8 15
26 -1 19 -18 20 -17 20 3 0 13 -6 22 -15 22 -8 0 -15 7 -15 15 0 8 7 15 15 15
8 0 15 7 15 15 0 8 -6 15 -14 15 -17 0 -9 50 10 57 9 3 12 14 8 29 -4 15 -2
24 5 24 6 0 11 7 11 16 0 8 -4 13 -8 10 -14 -8 -35 39 -28 62 4 11 2 23 -3 26
-6 4 -8 13 -5 20 3 8 1 17 -5 21 -7 4 -11 -12 -11 -48 0 -67 -15 -114 -48
-149 l-25 -27 46 -138 c25 -76 43 -141 41 -145 -3 -5 -37 -8 -75 -8 -70 0 -70
0 -84 33 -7 17 -23 76 -36 130 -13 53 -27 97 -31 97 -4 0 -8 -53 -8 -117 0
-65 -4 -124 -9 -131 -5 -9 -27 -12 -72 -10 l-64 3 0 260 c-1 281 -2 301 -14
270 -4 -11 -8 -94 -9 -185 0 -91 -6 -178 -11 -194 -6 -15 -11 -56 -11 -92 l0
-64 -45 0 c-24 0 -90 -5 -145 -11 -56 -6 -104 -8 -107 -5 -7 6 -16 105 -34
351 -6 88 -15 176 -19 195 l-8 35 -2 -30 c-2 -41 -7 -74 -16 -108 -3 -16 -2
-38 4 -50 19 -39 39 -182 32 -228 -6 -42 -7 -43 -18 -19 -9 22 -11 19 -11 -30
-1 -64 -25 -111 -68 -134 -34 -17 -225 -59 -250 -54 -11 2 -20 16 -24 38 -10
56 -99 471 -111 522 -6 26 -9 51 -5 54 10 11 199 53 236 54 27 0 32 3 23 12
-7 7 -12 15 -12 19 0 10 54 36 92 44 49 11 61 23 41 43 -14 15 -24 15 -122 -2
-68 -11 -129 -28 -170 -47 -35 -17 -89 -37 -120 -45 -31 -8 -64 -17 -73 -20
-10 -3 -18 -1 -18 4 0 5 10 12 22 15 12 4 19 9 15 13 -11 11 -69 -18 -63 -32
6 -15 -22 -23 -103 -29 -44 -4 -61 -2 -71 10 -19 22 -37 18 -44 -10 -4 -14
-13 -25 -21 -25 -16 0 -106 -35 -181 -71 -22 -10 -43 -19 -47 -19 -8 0 -274
-125 -297 -140 -51 -32 -104 -60 -114 -60 -6 0 -21 -10 -32 -23 -12 -12 -46
-35 -75 -51 -78 -42 -292 -186 -343 -231 -27 -23 -31 -24 -45 -10 -15 15 -12
20 29 55 25 22 82 65 128 97 46 32 107 75 135 96 29 21 122 78 209 127 328
187 643 316 988 404 226 58 516 101 800 120 91 6 498 -3 610 -14z m-2195 -125
c99 -114 119 -145 93 -145 -24 0 -298 -139 -381 -193 -58 -37 -81 -47 -86 -38
-5 7 -25 80 -45 163 -36 144 -37 150 -19 164 24 18 315 163 328 163 6 0 55
-52 110 -114z m3738 91 c23 -17 22 -21 -7 -22 -22 -2 -63 -40 -132 -124 -62
-76 -80 -91 -97 -84 -13 5 -14 9 -4 18 6 7 53 61 102 119 50 59 97 107 105
107 8 -1 23 -7 33 -14z m72 -46 c-3 -5 -11 -10 -16 -10 -6 0 -7 5 -4 10 3 6
11 10 16 10 6 0 7 -4 4 -10z m-1642 -7 c-7 -2 -21 -2 -30 0 -10 3 -4 5 12 5
17 0 24 -2 18 -5z m1774 -45 c34 -16 69 -38 78 -48 15 -16 14 -18 -1 -24 -10
-4 -20 -3 -23 2 -3 5 -27 19 -53 32 -26 13 -44 28 -41 33 4 6 0 8 -9 5 -19 -8
-81 29 -73 42 7 11 33 2 122 -42z m-1692 10 c28 -12 33 -28 10 -28 -10 0 -15
-10 -15 -31 0 -26 -2 -28 -14 -16 -12 12 -21 53 -17 80 1 10 6 9 36 -5z m93
-70 c-6 -18 -28 -21 -28 -4 0 9 7 16 16 16 9 0 14 -5 12 -12z m-1324 -12 c-7
-20 -23 -24 -59 -15 l-30 7 28 1 c15 0 27 6 27 11 0 6 9 10 20 10 13 0 17 -5
14 -14z m1578 -22 c61 -31 101 -121 84 -189 -6 -22 -11 -26 -34 -21 -15 3 -46
8 -70 11 -41 7 -43 9 -37 34 3 16 0 34 -9 46 -22 30 -50 8 -54 -42 -3 -36 3
-47 62 -118 72 -87 81 -110 74 -210 -7 -107 -60 -160 -161 -160 -82 0 -148 31
-174 83 -19 39 -24 145 -7 162 5 5 35 6 66 3 l57 -6 3 -50 c2 -34 8 -53 21
-61 35 -22 67 23 53 78 -3 11 -26 46 -51 76 -93 113 -117 206 -76 297 11 23
16 44 13 48 -4 4 -2 6 3 5 21 -5 29 1 16 9 -10 7 -8 9 10 9 13 0 44 4 69 10
51 11 102 6 142 -14z m-2055 -49 c0 -8 -3 -13 -5 -10 -3 3 -12 -1 -21 -7 -10
-8 -9 -4 3 10 23 26 23 26 23 7z m2350 -31 c64 -18 62 -8 18 -163 -15 -51 -23
-97 -18 -101 4 -5 20 -12 35 -15 27 -7 27 -6 65 114 21 70 43 121 50 121 18 0
106 -30 116 -40 5 -4 -12 -70 -37 -146 -24 -77 -68 -212 -96 -301 -28 -89 -54
-164 -58 -166 -4 -2 -35 4 -69 15 l-62 18 19 66 c11 37 29 93 40 126 11 33 19
62 17 65 -3 2 -20 6 -40 10 l-35 5 -26 -85 c-14 -47 -29 -100 -32 -117 -4 -17
-10 -33 -15 -36 -10 -6 -118 21 -130 33 -5 5 -2 31 7 58 8 28 31 104 50 170
19 66 48 161 64 210 15 50 33 109 39 133 13 48 18 49 98 26z m-2338 -25 c-25
-16 -32 -9 -13 12 12 13 20 16 22 9 3 -7 -2 -16 -9 -21z m186 -3 c11 -2 23 -4
28 -5 4 0 7 -8 7 -17 0 -8 -4 -13 -9 -10 -5 4 -12 0 -14 -6 -3 -8 -6 -6 -6 5
-1 9 -8 17 -17 17 -13 0 -14 -3 -5 -13 6 -8 8 -17 4 -20 -3 -4 2 -7 11 -7 10
0 36 -19 57 -42 38 -41 40 -46 37 -98 -1 -30 0 -59 3 -65 9 -16 9 -97 0 -135
l-9 -35 -1 33 c-1 18 -5 31 -10 28 -8 -5 -17 25 -25 84 -2 14 -4 30 -5 35 -1
6 -10 -10 -21 -34 -22 -47 -23 -44 33 -119 37 -48 41 -51 54 -35 13 16 14 15
9 -15 -4 -25 1 -43 24 -79 34 -53 35 -53 -53 -73 -66 -15 -54 -25 -142 108
-49 72 -75 98 -75 75 0 -5 16 -55 36 -112 19 -57 33 -109 31 -115 -5 -11 -115
-51 -122 -44 -7 6 -196 551 -202 579 -5 25 -1 27 100 63 124 43 182 48 225 17
30 -21 30 -21 25 0 -3 12 -11 18 -19 15 -8 -3 -14 -1 -14 4 0 6 -8 10 -17 10
-16 0 -16 2 -3 10 8 6 26 8 40 5 14 -3 34 -7 45 -9z m2716 -9 c22 -16 22 -17
4 -18 -20 0 -20 -1 0 -9 19 -8 19 -9 -2 -9 -12 -1 -27 7 -33 17 -8 12 -13 13
-16 5 -4 -10 -11 -10 -25 -2 -16 8 -18 14 -9 24 14 17 50 13 81 -8z m16 -161
c92 -47 115 -137 68 -254 -34 -85 -130 -277 -156 -313 -47 -67 -139 -79 -226
-29 -61 35 -79 59 -89 117 -8 52 8 101 93 287 69 152 105 200 162 213 41 10
107 1 148 -21z m-3266 -63 c79 -106 94 -128 124 -173 17 -25 32 -47 35 -50 14
-14 171 -253 168 -256 -6 -6 -118 -54 -126 -54 -4 0 -20 21 -36 48 -16 26 -30
48 -31 50 -1 1 -18 -5 -38 -13 -42 -17 -45 -31 -22 -94 l14 -41 -60 -31 c-34
-17 -63 -29 -65 -27 -12 13 -164 581 -164 615 0 12 123 81 146 83 6 0 31 -26
55 -57z m3559 27 c0 -5 -2 -10 -4 -10 -3 0 -8 5 -11 10 -3 6 -1 10 4 10 6 0
11 -4 11 -10z m20 -145 c34 -19 65 -35 69 -35 4 0 26 -16 48 -35 72 -62 80
-141 23 -240 -64 -112 -134 -140 -238 -95 -62 27 -56 32 -122 -92 -23 -43 -43
-78 -46 -78 -6 0 -94 46 -113 59 -11 7 -5 23 32 82 75 123 257 446 257 458 0
19 26 12 90 -24z m-4770 -48 c95 -57 159 -101 160 -109 0 -3 -17 -19 -38 -35
-22 -15 -56 -43 -76 -61 l-38 -33 58 -62 c32 -34 82 -87 111 -117 28 -30 68
-76 88 -102 l36 -48 -30 -27 c-34 -32 -186 -206 -265 -302 -60 -74 -276 -380
-276 -392 0 -4 -30 -63 -66 -131 -110 -206 -177 -364 -259 -613 -64 -193 -130
-474 -140 -595 -2 -25 -9 -90 -16 -145 -6 -55 -14 -185 -18 -290 -5 -150 -8
-186 -17 -170 -7 11 -14 70 -17 130 -3 61 -6 112 -6 114 -1 2 -10 -4 -21 -14
-11 -10 -20 -31 -20 -46 0 -27 -22 -59 -41 -59 -5 0 -11 11 -15 24 -5 23 -7
23 -35 9 -33 -16 -37 -28 -13 -37 25 -10 10 -18 -19 -11 -22 6 -23 9 -13 31 6
13 17 24 24 24 7 0 15 7 18 15 4 8 13 15 21 15 11 0 13 5 7 18 -4 9 -7 28 -6
42 1 14 2 35 2 48 0 15 9 26 26 32 43 17 57 13 52 -15 -6 -31 -4 -31 24 -3 20
20 23 34 25 123 3 92 2 97 -10 65 -12 -31 -14 -32 -19 -12 -4 13 -14 22 -26
22 -15 0 -18 5 -14 25 3 17 -1 27 -12 31 -14 5 -14 8 -1 27 12 18 12 24 -2 47
-15 26 -15 29 6 51 l22 24 -28 24 c-15 13 -33 38 -40 55 -6 17 -12 24 -12 14
-1 -9 -6 -18 -12 -20 -6 -2 -13 -23 -15 -48 -2 -24 -8 -68 -13 -99 -12 -70
-25 -193 -25 -248 -1 -54 -22 -74 -77 -78 -24 -2 -72 -10 -105 -19 -34 -9 -73
-16 -87 -16 -14 0 -32 -6 -39 -13 -7 -8 -33 -16 -57 -20 -24 -3 -47 -9 -52
-14 -5 -5 -12 -81 -15 -170 l-7 -161 31 -16 c17 -9 40 -16 52 -16 12 0 18 -4
15 -10 -4 -7 3 -9 22 -5 27 5 27 5 4 -5 -22 -10 -117 0 -140 15 -25 15 -22
403 3 410 6 2 81 19 166 39 228 54 230 55 240 79 9 23 33 267 34 351 l1 48
-178 93 c-98 51 -183 97 -189 103 -12 12 -3 52 54 261 l31 113 219 -3 219 -4
33 97 c19 53 41 111 50 130 8 18 26 60 40 93 l24 60 -165 160 -166 161 28 54
c43 85 145 264 159 277 9 10 52 1 206 -43 107 -31 205 -59 217 -61 17 -4 30 7
67 58 26 35 83 110 127 167 45 56 79 108 76 115 -2 7 -37 66 -77 132 -129 214
-152 256 -146 263 4 4 66 66 138 139 118 118 134 131 152 121 12 -6 50 -29 86
-51z m5772 -46 c44 -42 77 -81 76 -90 -2 -9 3 -15 11 -13 27 6 71 -51 49 -64
-7 -4 -8 -3 -4 4 4 8 0 12 -11 12 -15 0 -16 2 -3 10 10 7 11 10 3 11 -7 1 -17
2 -22 3 -20 3 -122 101 -127 123 -4 13 -9 21 -12 19 -3 -3 -20 5 -38 19 -18
14 -36 25 -39 25 -4 0 -37 -20 -74 -44 -85 -56 -129 -78 -141 -71 -6 3 -10 1
-10 -4 0 -6 -5 -11 -11 -11 -5 0 -7 4 -4 10 8 13 130 91 188 120 27 13 51 28
54 33 6 10 16 1 115 -92z m-4936 41 c48 -35 95 -119 98 -175 2 -36 6 -42 31
-48 64 -18 126 -112 127 -195 1 -62 -34 -102 -147 -168 -51 -31 -98 -56 -102
-56 -4 0 -17 16 -28 35 -11 19 -84 134 -163 256 -79 122 -146 227 -148 234 -5
12 148 111 207 134 44 18 84 12 125 -17z m2291 -167 c2 -5 -8 -11 -20 -11 -15
-1 -24 4 -24 13 0 16 38 14 44 -2z m2183 -7 c0 -13 -23 -5 -28 10 -2 7 2 10
12 6 9 -3 16 -11 16 -16z m-2774 -5 c13 -17 14 -17 8 0 -5 13 -1 17 15 17 12
0 21 -6 21 -15 0 -10 11 -15 35 -15 41 0 47 17 8 23 -16 2 -3 5 27 5 37 1 50
-1 41 -7 -23 -15 15 -19 219 -25 102 -2 219 -10 260 -16 86 -12 210 -40 225
-49 6 -4 26 -8 45 -10 63 -4 272 -61 354 -95 45 -19 103 -42 130 -51 61 -20
89 -34 99 -51 4 -8 15 -14 22 -14 8 0 15 -6 15 -14 0 -13 29 -28 59 -30 14 -1
26 -36 12 -36 -5 0 -21 6 -37 14 -242 118 -436 182 -724 240 -218 44 -300 51
-590 49 -241 -1 -295 -5 -439 -27 -433 -69 -738 -173 -1063 -365 -136 -80
-338 -223 -411 -291 -55 -50 -66 -55 -86 -35 -13 13 -13 16 -1 13 8 -2 15 4
16 12 0 8 2 21 2 28 1 7 20 19 42 28 22 9 40 20 40 25 0 5 4 9 10 9 5 0 24 15
42 33 34 33 143 117 153 117 3 0 33 20 68 43 34 24 89 59 122 77 33 18 65 36
70 41 20 15 268 139 279 139 6 0 72 23 146 51 74 28 153 55 175 60 22 4 58 12
80 18 22 5 72 17 110 26 103 25 115 31 112 57 -2 20 2 23 31 21 18 0 41 -8 51
-17 22 -20 71 -21 97 -1 10 8 31 15 47 15 15 0 27 5 27 10 0 16 22 12 36 -7z
m524 7 c0 -5 -7 -10 -16 -10 -8 0 -12 5 -9 10 3 6 10 10 16 10 5 0 9 -4 9 -10z
m-2736 -65 c-18 -28 -20 -29 -29 -16 -6 10 21 41 36 41 5 0 2 -11 -7 -25z
m4900 7 c-12 -9 -26 -26 -32 -37 -10 -18 -11 -17 -12 11 0 37 6 44 39 44 l26
0 -21 -18z m-4838 -31 c-4 -6 -14 -11 -22 -11 -12 0 -13 4 -3 21 7 14 14 18
21 11 6 -6 7 -15 4 -21z m1922 -153 c66 -70 80 -161 67 -441 l-7 -157 -87 -43
c-63 -33 -103 -46 -151 -51 -36 -4 -81 -11 -100 -16 -19 -5 -57 -14 -85 -21
-49 -12 -135 -45 -226 -87 -87 -40 -174 -104 -266 -197 -102 -102 -157 -196
-169 -287 -4 -26 -10 -48 -15 -48 -5 0 -104 52 -221 117 -117 64 -240 130
-273 147 -33 17 -79 50 -102 73 -39 38 -43 47 -43 91 0 60 12 77 155 211 185
174 346 294 555 414 253 145 539 257 782 306 134 28 149 27 186 -11z m1203 -7
c349 -87 699 -254 999 -474 186 -137 383 -322 412 -384 39 -87 -6 -151 -168
-238 -49 -27 -190 -104 -314 -172 -123 -68 -229 -123 -235 -123 -6 0 -19 24
-29 54 -10 30 -38 78 -62 108 -25 29 -47 68 -50 88 -14 76 -92 172 -209 255
-62 44 -170 87 -255 99 -137 21 -172 34 -258 101 -32 24 -77 54 -102 67 l-45
23 -8 150 c-15 287 -1 382 66 453 41 42 63 42 258 -7z m-687 -59 c25 -66 29
-70 64 -76 20 -3 54 -6 74 -6 20 0 39 -4 42 -9 4 -5 -20 -34 -51 -64 l-58 -55
17 -79 c9 -43 15 -80 12 -82 -2 -2 -33 15 -69 38 -36 22 -70 41 -75 41 -4 0
-38 -18 -75 -41 -37 -22 -69 -38 -72 -35 -3 3 2 32 11 64 24 85 21 106 -16
136 -65 51 -78 69 -66 84 6 7 27 13 47 12 103 -5 99 -7 137 76 19 41 38 73 42
70 5 -3 21 -36 36 -74z m-2444 27 c0 -5 9 -9 19 -9 21 0 32 -23 27 -55 -3 -24
-25 -26 -37 -5 -11 22 -39 83 -39 86 0 2 7 1 15 -2 8 -4 15 -10 15 -15z m193
-6 c9 -9 -22 -43 -40 -43 -18 0 -17 15 3 34 17 17 27 20 37 9z m4442 -2 c7
-12 -52 -54 -65 -46 -14 9 -12 21 6 39 17 18 50 21 59 7z m-4540 -118 c11 -13
26 -23 32 -23 12 0 68 -64 142 -163 29 -38 41 -61 34 -68 -14 -14 -146 127
-140 151 3 12 -4 22 -19 31 -13 7 -24 19 -24 26 0 8 -4 12 -9 8 -6 -3 -15 5
-22 17 -7 13 -19 29 -28 36 -14 10 -14 12 -1 10 8 -2 24 -13 35 -25z m3873
-53 c11 0 16 -13 10 -24 -5 -8 45 -55 53 -50 5 3 9 0 9 -5 0 -6 -3 -11 -6 -11
-8 0 -48 22 -54 30 -3 3 -22 14 -42 23 -41 20 -57 37 -34 37 9 0 15 3 15 8 -4
21 3 23 19 9 10 -10 24 -17 30 -17z m-1761 -62 c-3 -7 -5 -2 -5 12 0 14 2 19
5 13 2 -7 2 -19 0 -25z m1813 28 c0 -3 -4 -8 -10 -11 -5 -3 -10 -1 -10 4 0 6
5 11 10 11 6 0 10 -2 10 -4z m-1405 -193 c7 -112 7 -113 -15 -113 -20 0 -22 4
-16 31 3 17 6 75 6 128 1 127 16 99 25 -46z m1486 101 c6 -8 24 -14 40 -14 21
0 27 -4 23 -15 -4 -8 1 -17 10 -21 9 -3 16 -10 16 -15 0 -8 -66 29 -94 53 -6
5 -20 15 -31 23 -20 14 -20 14 2 8 12 -3 28 -11 34 -19z m-1882 -150 c1 -46
-3 -63 -14 -67 -8 -4 -17 -2 -20 4 -7 10 0 104 12 189 l7 45 7 -55 c4 -30 7
-83 8 -116z m-1758 146 c10 -6 19 -17 19 -26 0 -12 -4 -12 -25 2 -38 25 -34
45 6 24z m2278 -147 c1 -35 -3 -63 -8 -63 -14 0 -23 85 -14 152 l7 63 7 -45
c4 -25 8 -73 8 -107z m1612 74 c-14 -14 -36 36 -27 60 6 15 10 12 22 -16 9
-23 11 -38 5 -44z m44 63 c3 -5 1 -10 -4 -10 -6 0 -11 5 -11 10 0 6 2 10 4 10
3 0 8 -4 11 -10z m2 -42 c-3 -8 -6 -5 -6 6 -1 11 2 17 5 13 3 -3 4 -12 1 -19z
m115 10 c-9 -9 -9 -15 0 -27 10 -13 10 -14 -2 -4 -11 10 -20 5 -48 -25 -23
-25 -29 -29 -19 -12 20 36 60 80 72 80 5 0 4 -5 -3 -12z m998 -53 c23 -32 37
-60 34 -69 -5 -12 -11 -9 -30 13 -26 31 -31 47 -11 35 11 -7 -9 23 -24 36 -3
3 -12 16 -19 29 -20 38 6 15 50 -44z m-5430 -21 c14 -12 35 -27 48 -33 12 -6
22 -15 22 -19 0 -4 -23 -32 -51 -62 -28 -30 -85 -98 -127 -150 -42 -52 -79
-97 -83 -100 -3 -3 -26 -34 -51 -70 -168 -240 -360 -611 -404 -779 -8 -30 -19
-60 -23 -65 -8 -10 -71 -242 -71 -260 0 -4 5 -4 11 -1 14 9 6 -70 -20 -205
-33 -166 -41 -269 -41 -515 0 -362 41 -625 146 -950 127 -389 250 -619 536
-1000 67 -88 94 -133 87 -140 -11 -11 -51 29 -165 165 -118 140 -283 417 -386
645 -41 92 -114 284 -128 340 -6 28 -20 77 -30 110 -10 33 -26 98 -35 145 -9
47 -23 107 -31 134 -8 26 -14 57 -14 67 0 29 -21 68 -35 63 -6 -3 -17 5 -23
18 -8 18 -11 19 -11 6 -2 -33 -17 -18 -30 28 -11 36 -16 43 -23 30 -11 -19
-38 -21 -38 -2 0 7 8 24 19 37 15 19 16 29 8 49 l-10 25 -8 -30 c-6 -24 -7
-20 -6 22 1 28 -2 49 -6 46 -5 -3 -7 7 -5 22 2 23 12 31 56 47 58 22 72 42 72
106 0 67 -35 105 -106 116 -21 3 -21 2 -12 162 3 50 8 96 12 102 4 6 4 22 1
35 -10 38 13 204 45 329 16 62 36 142 45 178 9 36 19 73 21 83 4 11 0 17 -10
17 -18 0 -23 58 -7 88 12 25 23 101 11 82 -5 -8 -10 -10 -10 -5 0 6 11 22 25
37 14 15 25 37 25 48 0 13 4 19 11 14 8 -5 10 5 6 32 -3 24 1 55 11 81 15 39
32 57 32 34 0 -5 9 -11 21 -14 13 -3 19 -1 16 6 -3 7 -10 11 -17 9 -6 -1 -10
3 -7 10 2 7 10 12 16 11 12 -3 12 -2 15 37 1 14 10 42 19 64 20 45 21 49 7 41
-16 -10 -12 0 26 75 33 66 67 110 42 56 -18 -40 4 -99 46 -125 45 -28 88 -27
124 4 77 65 31 190 -69 190 -33 0 -36 2 -36 30 -1 16 1 24 4 18 7 -20 23 -15
23 6 0 11 9 23 21 26 13 5 18 12 14 22 -4 13 -3 13 8 4 17 -13 71 10 81 35 3
8 2 13 -3 10 -16 -10 -22 26 -8 43 8 9 17 24 20 34 4 10 11 16 16 12 5 -3 22
10 36 29 21 28 24 39 16 54 -8 15 -7 21 4 26 17 6 47 -3 56 -16 3 -5 21 8 39
28 32 37 32 38 11 45 -11 5 -21 12 -21 15 0 4 3 5 6 1 9 -9 36 21 29 33 -4 6
5 10 20 10 18 0 24 -4 19 -12 -4 -7 12 5 37 27 24 22 43 43 41 48 -3 10 46
-20 78 -49z m2009 -41 c1 -54 -10 -85 -25 -70 -3 2 -2 42 2 88 8 94 22 84 23
-18z m3999 -25 c31 -59 37 -78 26 -82 -9 -3 -14 1 -14 12 0 10 -11 33 -25 52
-13 18 -22 37 -19 41 3 5 -1 9 -9 9 -8 0 -18 11 -21 24 -3 13 -9 32 -12 43
-15 42 34 -24 74 -99z m-101 96 c-3 -3 -12 -4 -19 -1 -8 3 -5 6 6 6 11 1 17
-2 13 -5z m-1698 -17 c11 -14 5 -27 -12 -27 -6 0 -7 3 -4 7 4 3 2 12 -4 20 -7
8 -8 13 -1 13 5 0 15 -6 21 -13z m51 -37 c0 -5 -2 -10 -4 -10 -3 0 -8 5 -11
10 -3 6 -1 10 4 10 6 0 11 -4 11 -10z m1460 0 c0 -12 -37 -28 -95 -40 -22 -5
-62 -16 -88 -26 -43 -15 -50 -15 -63 -2 -13 13 -13 16 0 28 13 10 16 10 16 0
0 -15 44 -8 143 25 83 28 87 28 87 15z m-541 -75 c0 -5 -11 4 -24 20 -14 17
-25 35 -25 40 0 6 11 -3 25 -20 13 -16 24 -34 24 -40z m-2904 -5 c-3 -5 -12
-7 -20 -3 -21 7 -19 13 6 13 11 0 18 -4 14 -10z m2968 -62 c70 -69 95 -106
103 -156 8 -54 59 -129 109 -163 22 -15 38 -29 35 -31 -2 -2 3 -14 13 -28 9
-13 17 -35 17 -48 0 -15 7 -26 20 -29 11 -3 21 -14 22 -24 1 -11 3 -31 4 -46
4 -44 45 -153 57 -153 5 0 5 -4 2 -10 -3 -5 -1 -10 4 -10 6 0 11 -7 11 -15 0
-9 9 -41 21 -73 79 -218 138 -454 199 -792 36 -204 45 -719 17 -940 -22 -171
-52 -335 -83 -455 -15 -55 -30 -118 -35 -140 -20 -84 -82 -258 -99 -275 -9 -9
-20 -36 -24 -60 -8 -51 -30 -96 -63 -132 -14 -14 -23 -32 -20 -40 7 -21 92 74
112 126 20 52 35 60 35 18 0 -37 -47 -107 -105 -155 -33 -28 -57 -62 -88 -125
-62 -123 -142 -259 -230 -390 -49 -71 -77 -122 -77 -140 0 -21 -2 -24 -10 -12
-6 8 -9 30 -8 49 2 21 -2 36 -10 39 -6 2 -12 -1 -12 -7 0 -5 -12 -11 -27 -13
-27 -3 -28 -6 -35 -77 -6 -55 -14 -84 -33 -110 -55 -81 -412 -430 -493 -483
-32 -21 -49 -23 -33 -4 9 11 9 15 0 18 -8 3 -10 11 -4 24 4 10 7 23 6 28 -1 4
4 15 11 23 11 13 13 13 18 -3 6 -17 8 -16 19 5 11 19 11 22 -1 15 -9 -6 -9 -2
2 12 8 10 18 21 22 24 18 14 248 242 248 246 0 3 18 24 39 47 61 65 79 87 138
165 30 39 59 72 64 72 5 0 9 5 9 10 0 6 32 56 70 113 124 180 156 234 243 410
92 184 130 279 195 477 55 171 65 206 98 352 28 124 38 147 47 111 2 -10 3 24
1 74 l-3 92 29 -3 c25 -3 29 1 34 28 49 243 54 662 11 946 -41 269 -48 299
-97 480 -118 431 -229 671 -531 1148 -15 23 -25 42 -22 42 2 0 29 -24 58 -52z
m882 -128 c-2 -4 -14 -10 -25 -13 -11 -3 -18 -1 -14 4 3 5 -7 36 -21 68 -39
86 -21 97 26 16 22 -37 37 -70 34 -75z m-3479 96 c28 -7 64 -22 79 -32 38 -25
85 -71 85 -83 0 -6 6 -14 13 -18 8 -4 25 -25 38 -45 58 -85 186 -158 279 -158
31 0 50 -4 50 -11 0 -8 -23 -10 -73 -7 -93 6 -190 50 -258 117 -27 27 -49 53
-49 58 0 6 -9 21 -20 34 -55 65 -90 93 -154 124 -76 37 -73 43 10 21z m2736
-28 c-12 -12 -35 -1 -27 12 3 5 13 6 21 3 10 -4 12 -9 6 -15z m28 -114 c0 -8
-4 -14 -9 -14 -6 0 -9 9 -8 19 1 22 17 18 17 -5z m-2928 -11 c18 -10 35 -21
36 -25 2 -5 8 -8 13 -8 5 0 41 -22 81 -48 40 -27 94 -57 121 -67 74 -28 46
-31 -38 -5 -44 14 -91 37 -113 55 -50 42 -128 95 -141 95 -5 0 -13 5 -16 10
-10 16 20 12 57 -7z m3540 -27 c7 4 8 2 4 -4 -11 -18 -26 -14 -25 6 0 10 3 12
6 4 2 -6 10 -9 15 -6z m-3997 -6 c-3 -5 -13 -10 -22 -10 -8 0 -31 -7 -51 -16
-21 -9 -46 -20 -57 -25 -50 -22 -75 -28 -75 -19 0 13 52 39 120 61 63 20 94
24 85 9z m739 -63 c22 -17 47 -38 54 -45 8 -7 27 -19 43 -27 16 -9 29 -17 29
-19 0 -9 -86 19 -99 32 -8 8 -48 39 -88 69 -40 31 -73 57 -73 59 0 9 98 -41
134 -69z m3221 44 c-3 -6 -11 -11 -17 -11 -6 0 -6 6 2 15 14 17 26 13 15 -4z
m-5969 -171 c35 -79 104 -142 234 -215 58 -32 139 -77 180 -100 41 -23 153
-84 247 -135 163 -87 233 -137 233 -167 0 -7 -3 -13 -7 -14 -5 0 -19 -2 -33
-4 -46 -6 -68 5 -65 31 1 15 -3 24 -11 24 -8 0 -14 4 -14 9 0 5 -10 7 -22 3
-12 -3 -17 -7 -10 -10 6 -2 12 -9 12 -15 0 -15 -37 -39 -42 -28 -2 5 -14 12
-27 16 -16 5 -21 4 -17 -4 4 -6 2 -11 -3 -11 -6 0 -11 5 -11 10 0 16 -47 11
-61 -7 -12 -15 -12 -16 4 -10 13 5 17 1 18 -16 1 -12 2 -26 4 -32 1 -5 3 -16
3 -22 3 -18 18 -16 38 5 18 18 54 25 54 11 0 -5 -9 -9 -20 -9 -10 0 -23 -7
-28 -16 -6 -11 -17 -15 -31 -11 -25 6 -27 4 -35 -54 -7 -45 -6 -47 24 -60 16
-8 30 -18 30 -23 0 -4 9 -6 20 -3 11 3 20 1 20 -4 0 -5 11 -9 25 -9 16 0 25
-6 25 -15 0 -8 9 -15 19 -15 11 0 22 -6 24 -12 3 -7 6 -1 6 15 1 15 -3 27 -8
27 -17 0 -7 41 16 66 13 14 23 29 23 34 0 18 21 21 36 5 15 -14 15 -18 -1 -41
-12 -19 -17 -48 -17 -104 0 -68 -2 -78 -15 -73 -12 5 -10 -2 6 -24 13 -17 21
-39 19 -49 -2 -15 -11 -9 -37 28 -20 28 -76 78 -135 121 -197 144 -735 496
-782 512 -72 25 -170 30 -224 11 -24 -8 -46 -13 -48 -11 -6 5 67 35 103 42 17
3 39 17 50 29 44 51 60 74 60 87 0 18 50 85 83 114 21 18 23 24 13 36 -9 11
-9 17 -1 22 6 4 9 13 6 21 -4 9 2 14 15 14 18 0 20 4 15 28 -13 55 -18 141
-11 159 6 13 10 2 16 -40 5 -32 20 -85 35 -117z m2094 146 c-65 -31 -140 -77
-140 -85 0 -3 -23 -17 -51 -31 -32 -15 -70 -46 -102 -81 -28 -32 -55 -55 -60
-52 -5 3 -6 -4 -2 -16 4 -12 2 -27 -3 -34 -26 -34 -52 -141 -52 -219 0 -61 -3
-79 -11 -71 -15 15 -25 199 -12 215 6 7 14 31 17 52 13 68 141 236 181 236 7
0 15 4 17 8 2 5 30 21 63 37 111 51 255 90 155 41z m3388 -28 c2 -5 10 -8 17
-8 14 0 29 -27 26 -47 -1 -6 6 -17 16 -25 11 -8 19 -29 20 -53 3 -37 2 -38 -8
-15 -42 96 -63 132 -88 145 -15 7 -34 22 -42 31 -12 16 -10 16 21 -2 19 -10
37 -22 38 -26z m-834 -113 c-16 -50 -29 -70 -90 -130 -47 -45 -96 -82 -140
-104 -38 -19 -76 -40 -84 -47 -8 -7 -47 -29 -85 -49 -111 -58 -145 -79 -145
-92 0 -7 -6 -10 -14 -7 -7 3 -36 -8 -62 -25 -27 -16 -56 -31 -64 -33 -8 -2
-17 -5 -20 -8 -3 -3 -18 -10 -35 -16 -16 -6 -29 -16 -28 -22 2 -6 -4 -9 -13
-5 -9 3 -19 2 -23 -3 -3 -5 -19 -17 -36 -26 -16 -9 -31 -26 -33 -37 -5 -33
-22 -24 -22 12 0 29 6 35 68 68 76 40 408 220 555 301 53 29 119 72 145 94 57
49 107 139 125 221 l12 58 3 -45 c2 -25 -5 -72 -14 -105z m1296 121 c0 -2 -7
-9 -15 -16 -13 -11 -14 -10 -9 4 5 14 24 23 24 12z m-3661 -15 c10 -7 0 -11
-35 -16 -93 -12 -159 -37 -214 -78 -60 -45 -150 -135 -150 -150 0 -5 -9 -21
-19 -36 -10 -14 -29 -59 -41 -99 -44 -146 -9 -299 93 -401 108 -107 229 -137
352 -86 46 19 62 22 70 12 6 -7 39 -12 85 -13 79 -1 79 -1 280 -96 134 -64
163 -70 331 -70 82 0 146 -4 143 -9 -3 -5 -18 -9 -33 -9 -16 0 -34 -7 -41 -15
-10 -12 -8 -16 15 -25 14 -5 32 -10 40 -10 8 0 17 -4 20 -10 3 -5 -2 -10 -12
-10 -39 0 -45 -15 -18 -44 37 -40 55 -91 55 -157 0 -57 1 -60 50 -107 72 -70
89 -125 112 -352 21 -206 4 -480 -41 -665 -6 -22 -13 -53 -16 -70 -4 -16 -10
-39 -15 -50 -4 -11 -15 -43 -24 -71 -38 -123 -70 -172 -83 -124 -6 23 -23 17
-23 -9 0 -9 -11 -40 -25 -68 -13 -28 -27 -63 -31 -77 -3 -14 -11 -26 -16 -26
-7 0 -9 36 -6 98 5 99 24 169 75 280 14 29 23 55 20 58 -7 7 -59 -79 -108
-178 -5 -10 -9 -29 -9 -42 0 -14 -4 -28 -10 -31 -5 -3 -10 -39 -10 -80 0 -41
5 -77 10 -80 10 -6 14 -85 4 -85 -14 0 -55 28 -125 86 -81 67 -184 133 -234
151 -89 32 -199 53 -276 53 -51 0 -71 -6 -123 -35 -35 -19 -69 -35 -77 -35 -8
0 -40 16 -72 35 -52 32 -65 35 -132 35 -144 0 -272 -53 -440 -180 -142 -107
-175 -120 -175 -66 0 14 -6 29 -14 33 -18 11 -31 38 -61 129 -31 91 -45 112
-45 67 0 -72 -30 -42 -65 67 -10 30 -21 64 -25 75 -15 38 -45 159 -59 235 -17
91 -33 378 -28 480 8 149 22 252 53 400 3 14 22 37 42 50 47 33 82 71 82 90 0
9 5 21 11 27 8 8 10 55 7 146 -3 121 -2 136 14 146 10 6 18 19 18 29 0 18 112
81 180 100 48 14 151 32 183 32 14 0 29 5 32 10 3 6 24 10 45 10 50 0 58 13
16 28 -69 25 -157 137 -217 277 -13 31 -14 163 -1 228 11 58 58 157 74 157 4
0 8 7 8 15 0 8 5 15 11 15 6 0 9 -3 7 -7 -36 -70 -59 -133 -66 -180 -11 -65
-4 -221 9 -229 5 -3 9 -15 10 -27 0 -12 9 -35 19 -52 11 -16 29 -47 40 -67 36
-66 128 -138 175 -138 15 0 35 -5 46 -10 28 -16 25 8 -5 31 -35 28 -100 127
-114 175 -14 48 -16 246 -3 272 27 51 54 120 54 142 2 61 173 181 283 199 68
12 146 12 163 2z m2251 -82 c-6 -23 -24 -54 -40 -68 -16 -14 -45 -41 -64 -58
-20 -18 -40 -33 -44 -33 -5 0 -15 -7 -22 -15 -7 -8 -21 -15 -31 -15 -11 0 -19
-4 -19 -8 0 -4 -16 -14 -35 -21 -19 -7 -35 -17 -35 -22 0 -5 -7 -9 -14 -9 -16
0 -88 -36 -126 -63 -20 -14 -20 -16 -3 -20 15 -3 14 -5 -7 -14 -18 -8 -27 -7
-32 1 -8 11 -9 8 -12 -16 0 -7 -12 -13 -26 -14 -14 0 -54 -14 -90 -31 -36 -17
-89 -41 -117 -53 -29 -13 -53 -27 -53 -32 0 -5 -4 -6 -10 -3 -38 24 1 50 330
223 353 185 420 234 443 319 10 39 13 43 15 21 2 -15 -2 -46 -8 -69z m1365 71
c8 -13 -21 -43 -34 -36 -5 3 -8 -2 -7 -11 1 -13 -7 -18 -26 -18 -16 -1 -28 2
-28 5 0 3 12 20 28 38 27 32 55 41 67 22z m-340 -10 c3 -5 1 -10 -4 -10 -6 0
-11 5 -11 10 0 6 2 10 4 10 3 0 8 -4 11 -10z m22 -12 c-3 -8 -6 -5 -6 6 -1 11
2 17 5 13 3 -3 4 -12 1 -19z m-4079 -15 c-9 -10 -19 -28 -22 -40 -4 -13 -12
-23 -17 -23 -5 0 -9 -6 -9 -13 0 -7 -9 -28 -19 -48 -26 -48 -43 -169 -35 -243
4 -34 19 -87 34 -119 35 -73 22 -83 -20 -15 -72 117 -78 256 -17 388 21 45
106 145 115 135 3 -3 -2 -13 -10 -22z m-2024 -24 c10 16 19 14 44 -9 34 -32
27 -38 -30 -28 -63 12 -64 12 -47 31 9 9 16 11 20 5 4 -7 9 -6 13 1z m699 -88
c38 -23 178 -99 407 -222 208 -112 192 -103 204 -122 18 -28 -3 -31 -47 -7
-23 13 -66 36 -96 52 -29 16 -91 51 -137 78 -47 28 -87 50 -91 50 -3 0 -34 18
-69 40 -35 22 -67 40 -72 40 -16 0 -129 85 -154 115 -14 17 -29 41 -33 55 -5
19 1 15 24 -17 18 -23 46 -51 64 -62z m4791 83 c17 -16 21 -34 9 -34 -5 0 -13
11 -20 25 -13 29 -11 31 11 9z m180 -10 c9 -23 7 -36 -3 -30 -12 8 -21 46 -11
46 4 0 11 -7 14 -16z m-44 -28 c0 -36 -26 -58 -36 -31 -9 23 5 65 21 65 10 0
15 -11 15 -34z m706 5 c-31 -32 -31 -38 -7 -93 62 -138 107 -267 110 -310 2
-52 -16 -28 -33 45 -10 39 -30 95 -46 122 -34 59 -92 224 -83 238 3 5 13 7 23
4 12 -3 17 0 14 8 -3 8 4 13 21 13 l26 0 -25 -27z m-4539 -16 c-7 -14 -15 -25
-19 -25 -11 0 -10 7 4 30 18 28 28 25 15 -5z m-1742 -26 c5 -5 -1 -9 -16 -9
-14 0 -31 -6 -38 -12 -11 -11 -12 -10 -6 1 6 11 4 13 -9 8 -10 -4 -15 -3 -11
3 3 6 1 10 -5 10 -6 0 -8 5 -5 10 7 12 74 3 90 -11z m1704 -66 c-18 -61 -18
-255 0 -276 7 -9 8 -18 3 -21 -5 -3 -18 16 -28 42 -22 59 -25 201 -5 252 31
75 51 77 30 3z m82 -30 c-19 -67 -13 -181 13 -255 26 -74 19 -82 -13 -15 -43
91 -49 202 -14 285 18 44 27 35 14 -15z m-1461 17 c0 -5 -4 -10 -10 -10 -5 0
-10 5 -10 10 0 6 5 10 10 10 6 0 10 -4 10 -10z m2350 -13 c-68 -43 -156 -150
-179 -216 -18 -53 3 -59 27 -8 12 24 47 68 79 96 97 87 194 126 330 134 100 6
121 -9 26 -17 -177 -16 -354 -130 -423 -273 -13 -26 -27 -55 -31 -64 -15 -33
-31 -140 -26 -174 3 -20 2 -35 -4 -35 -21 0 -32 60 -32 175 1 136 12 173 85
276 40 58 133 129 168 129 8 0 -1 -10 -20 -23z m3400 -13 c0 -8 -4 -12 -10 -9
-5 3 -10 10 -10 16 0 5 5 9 10 9 6 0 10 -7 10 -16z m70 -29 c0 -8 -4 -15 -10
-15 -5 0 -10 7 -10 15 0 8 5 15 10 15 6 0 10 -7 10 -15z m-4613 -99 c1 -86 5
-101 37 -168 19 -40 52 -90 71 -112 46 -49 38 -58 -15 -16 -60 47 -107 152
-116 255 -3 49 -2 91 5 108 6 15 12 27 13 27 2 0 4 -42 5 -94z m4112 -50 c23
-44 44 -97 47 -118 4 -21 11 -41 15 -44 5 -3 9 -10 9 -15 0 -33 -47 46 -70
116 -7 22 -26 66 -41 97 -30 60 -39 97 -15 63 7 -11 32 -56 55 -99z m515 92
c10 -38 7 -42 -14 -15 -24 30 -25 37 -6 37 7 0 16 -10 20 -22z m-3134 2 c0 -5
-21 -10 -47 -10 -85 0 -180 -46 -270 -131 -107 -101 -153 -185 -153 -279 0
-31 -4 -50 -11 -50 -8 0 -10 24 -7 83 4 65 12 94 34 137 16 30 32 60 36 65 5
6 23 30 42 55 40 53 119 103 196 124 63 17 180 21 180 6z m-1552 -202 c22 -52
42 -78 94 -126 40 -37 82 -62 104 -62 8 0 14 -4 14 -10 0 -5 10 -10 23 -10 27
-1 88 -28 67 -30 -51 -7 -91 5 -178 48 -41 21 -98 71 -94 83 1 5 -2 9 -7 9
-13 0 -49 81 -62 137 -6 28 -7 67 -3 93 l8 45 7 -66 c4 -37 16 -87 27 -111z
m4720 95 c-3 -25 -4 -26 -20 -10 -17 17 -14 56 6 69 13 9 19 -18 14 -59z
m-2753 18 c-3 -6 -12 -11 -18 -11 -7 0 -24 -6 -39 -14 -50 -26 -132 -44 -254
-56 -66 -6 -141 -17 -166 -25 -78 -23 -174 -74 -212 -113 -24 -24 -34 -30 -30
-17 11 29 101 109 155 139 54 29 116 47 179 52 25 3 92 8 150 13 58 5 134 17
170 28 68 21 76 22 65 4z m155 -32 c-94 -87 -247 -148 -371 -149 -98 0 -249
-36 -301 -72 -14 -10 -30 -18 -35 -18 -4 0 -19 -9 -33 -20 -14 -11 -32 -20
-40 -20 -28 0 75 82 145 116 70 34 81 36 310 63 44 5 94 12 110 16 40 10 159
67 215 104 25 16 47 30 50 30 3 0 -20 -23 -50 -50z m196 -64 c-9 -25 -33 -72
-53 -103 -43 -68 -160 -187 -194 -197 -13 -4 -27 -12 -30 -18 -12 -18 -113
-38 -219 -44 -58 -3 -103 -3 -100 0 3 3 47 10 99 16 84 11 156 32 171 51 3 4
19 11 35 15 28 8 28 9 7 13 -13 2 -28 -1 -35 -6 -7 -5 -37 -12 -67 -15 l-55
-6 50 18 c150 52 188 76 276 168 43 46 79 90 79 97 0 8 6 19 14 25 8 7 18 27
22 44 7 27 9 28 12 10 2 -12 -4 -43 -12 -68z m-4136 35 c0 -5 -5 -10 -11 -10
-5 0 -7 5 -4 10 3 6 8 10 11 10 2 0 4 -4 4 -10z m4050 -20 c-22 -31 -132 -120
-147 -120 -5 0 -27 -9 -49 -19 -39 -19 -105 -27 -199 -23 -70 3 -38 22 38 22
62 0 165 30 208 61 15 10 30 19 34 19 7 0 78 53 103 77 25 24 33 13 12 -17z
m-4087 -60 c-3 -12 -8 -19 -11 -16 -5 6 5 36 12 36 2 0 2 -9 -1 -20z m5387
-40 c-8 -5 -17 -7 -19 -4 -3 3 1 9 9 14 8 5 17 7 19 4 3 -3 -1 -9 -9 -14z
m-30 -14 c0 -2 -7 -7 -16 -10 -8 -3 -12 -2 -9 4 6 10 25 14 25 6z m-3439 -138
c19 -14 52 -31 74 -39 26 -8 34 -14 22 -17 -34 -7 -126 49 -182 111 -70 77
-71 91 -1 23 29 -29 69 -64 87 -78z m4231 79 c6 -12 15 -38 19 -57 l7 -35 1
33 c1 32 14 42 27 20 5 -7 3 -8 -6 -3 -10 6 -11 1 -6 -21 4 -16 14 -33 22 -37
12 -7 14 -20 9 -62 -7 -54 8 -125 26 -125 11 0 40 -56 33 -63 -3 -3 4 -8 15
-12 12 -3 21 -14 21 -23 0 -9 4 -22 8 -29 4 -6 6 22 4 63 -3 53 -1 74 8 74 8
0 10 9 5 28 -4 17 -3 23 3 17 9 -9 56 -219 81 -355 11 -62 29 -227 36 -341 l5
-76 -39 -7 c-75 -12 -119 -79 -99 -152 9 -35 38 -58 89 -72 l34 -8 -1 -110
c-1 -113 -25 -334 -49 -439 -32 -142 -106 -363 -126 -376 -16 -10 -39 -12 -39
-3 0 4 8 13 17 20 16 11 16 13 -9 25 -22 9 -25 15 -18 30 15 28 12 31 -15 13
-20 -13 -25 -14 -26 -3 0 8 -7 -4 -15 -25 -13 -35 -12 -40 4 -52 9 -7 24 -14
32 -14 13 0 13 -2 1 -9 -9 -6 -12 -18 -8 -32 5 -20 4 -21 -6 -9 -7 8 -24 14
-38 12 -21 -2 -30 -14 -49 -60 -71 -174 -197 -410 -325 -607 -117 -182 -357
-448 -565 -629 -123 -107 -177 -143 -192 -128 -14 14 -3 25 105 111 108 86
341 322 440 446 163 203 292 407 395 625 146 305 211 525 281 940 32 189 31
714 -2 840 -7 30 -19 87 -26 125 -7 39 -19 102 -27 142 -17 85 -17 86 -5 79
12 -7 7 42 -7 74 l-11 25 0 -29 c-1 -47 -12 -23 -16 35 -3 51 -36 215 -51 254
-6 15 -4 16 14 6 12 -6 27 -21 34 -34z m-857 13 c-52 -34 -67 -44 -94 -66 -45
-35 -102 -67 -109 -60 -3 4 4 9 16 13 12 3 22 9 22 14 0 5 6 9 13 9 7 0 19 9
27 20 8 11 20 20 27 20 6 0 16 6 20 13 8 13 81 54 98 56 6 0 -3 -8 -20 -19z
m482 -24 c23 -15 40 -39 56 -81 124 -313 197 -691 197 -1010 0 -154 -16 -379
-34 -475 -20 -113 -66 -312 -76 -335 -5 -11 -25 -69 -45 -130 -20 -60 -44
-126 -53 -145 -21 -43 -75 -80 -116 -80 -32 0 -135 57 -231 127 -92 67 -509
359 -565 394 -76 49 -144 127 -160 185 -11 39 -11 65 4 176 22 157 23 365 2
508 -18 124 -20 172 -6 221 22 77 106 143 665 517 94 63 190 125 215 137 52
28 96 25 147 -9z m-5029 -22 c188 -120 669 -452 735 -507 27 -22 59 -62 74
-91 24 -47 25 -57 19 -141 -3 -49 -10 -124 -16 -165 -14 -113 -12 -312 5 -424
25 -165 18 -216 -40 -292 -14 -18 -105 -88 -203 -154 -97 -67 -211 -146 -252
-175 -104 -75 -303 -214 -356 -248 -57 -37 -102 -44 -148 -22 -49 23 -60 42
-108 177 -127 361 -177 673 -165 1033 9 268 57 538 142 798 75 230 100 262
196 255 44 -3 69 -12 117 -44z m167 -12 c-4 -5 -75 37 -75 44 0 3 18 -6 39
-18 22 -12 38 -24 36 -26z m715 -6 c0 -3 -4 -8 -10 -11 -5 -3 -10 -1 -10 4 0
6 5 11 10 11 6 0 10 -2 10 -4z m-685 -16 c3 -6 -1 -7 -9 -4 -18 7 -21 14 -7
14 6 0 13 -4 16 -10z m5295 0 c0 -5 -5 -10 -11 -10 -5 0 -7 5 -4 10 3 6 8 10
11 10 2 0 4 -4 4 -10z m-4680 -20 c-8 -5 -17 -7 -19 -4 -3 3 1 9 9 14 8 5 17
7 19 4 3 -3 -1 -9 -9 -14z m267 -26 c-7 -7 -37 7 -37 17 0 6 9 5 21 -1 11 -7
19 -14 16 -16z m2462 -11 c-71 -79 -235 -183 -288 -183 -11 0 -23 -4 -26 -10
-3 -5 -18 -10 -33 -10 -25 1 -24 2 12 20 22 11 44 20 49 20 16 0 81 33 129 67
26 18 51 33 55 33 5 1 33 21 63 45 64 51 73 55 39 18z m-2799 -87 c0 -2 -7 -6
-15 -10 -8 -3 -15 -1 -15 4 0 6 7 10 15 10 8 0 15 -2 15 -4z m-275 -40 c11 -8
16 -15 10 -16 -5 0 -23 12 -40 26 -31 26 -6 18 30 -10z m724 14 c-8 -4 -33
-11 -56 -15 -24 -4 -43 -11 -43 -16 0 -5 -7 -9 -17 -9 -32 0 17 39 61 48 46 9
78 5 55 -8z m-674 -50 c3 -6 -1 -7 -9 -4 -18 7 -21 14 -7 14 6 0 13 -4 16 -10z
m557 -90 c-20 -27 -38 -47 -41 -45 -7 7 62 94 76 95 1 0 -14 -22 -35 -50z
m-341 -57 c13 -16 12 -17 -3 -4 -10 7 -18 15 -18 17 0 8 8 3 21 -13z m2869
-24 c0 -6 -4 -7 -10 -4 -5 3 -10 11 -10 16 0 6 5 7 10 4 6 -3 10 -11 10 -16z
m-4860 -8 c0 -12 -28 -22 -34 -12 -3 5 -3 11 1 15 9 9 33 7 33 -3z m5124 -165
c1 -23 -3 -30 -15 -28 -12 2 -15 -4 -11 -23 2 -14 8 -25 13 -25 5 0 9 -9 9
-19 0 -11 5 -21 10 -23 6 -2 13 -29 15 -61 2 -31 7 -85 11 -120 11 -98 -2 -63
-26 70 -12 68 -33 153 -47 190 -31 82 -37 121 -28 170 l7 37 30 -69 c17 -38
31 -83 32 -99z m-229 124 c17 -34 19 -50 5 -50 -5 0 -10 9 -10 19 0 11 -4 23
-10 26 -10 6 -14 35 -5 35 2 0 11 -13 20 -30z m-4905 -21 c0 -5 -9 -9 -20 -9
-11 0 -20 6 -20 14 0 9 7 12 20 9 11 -3 20 -9 20 -14z m2254 -192 c0 -53 -8
-117 -17 -152 -10 -32 -17 -77 -17 -98 0 -47 -11 -69 -46 -92 l-27 -17 7 93
c7 101 24 208 36 224 4 6 10 26 14 44 27 143 51 142 50 -2z m-1489 -4 c-4 -31
-11 -66 -15 -77 -8 -19 -9 -18 -10 9 -1 17 -3 42 -5 58 -2 15 0 27 5 27 4 0
10 9 13 20 11 42 19 18 12 -37z m4250 -250 c4 -29 3 -43 -4 -43 -6 0 -11 18
-11 39 0 22 -3 48 -6 58 -4 14 -4 15 4 3 5 -8 13 -34 17 -57z m-4567 -122 c-3
-15 -28 -18 -85 -12 -24 2 -13 29 15 39 33 11 74 -5 70 -27z m6544 15 c11 -16
-5 -27 -51 -33 -45 -6 -54 7 -25 39 18 19 62 15 76 -6z m-335 -48 c-2 -13 -4
-3 -4 22 0 25 2 35 4 23 2 -13 2 -33 0 -45z m-5938 -14 c-9 -11 -9 -18 -1 -26
15 -15 16 -58 1 -58 -8 0 -8 -4 0 -14 6 -8 16 -54 22 -102 31 -279 88 -530
181 -796 51 -147 112 -196 233 -186 62 5 105 29 315 178 85 60 211 148 280
196 368 253 364 251 381 288 7 14 16 26 21 26 11 0 -18 -50 -55 -95 -28 -35
-180 -152 -252 -195 -54 -33 -226 -160 -246 -182 -9 -10 -21 -18 -26 -18 -5 0
-20 -11 -33 -25 -13 -14 -30 -25 -37 -25 -8 0 -16 -7 -19 -15 -4 -8 -11 -15
-16 -15 -5 0 -22 -9 -37 -19 -15 -11 -67 -43 -114 -70 -97 -56 -166 -74 -230
-59 -52 12 -143 63 -162 91 -27 42 -90 224 -134 388 -42 159 -96 518 -71 479
8 -13 10 -13 10 2 0 9 -5 20 -10 23 -8 5 -7 11 0 20 7 8 9 24 5 36 -6 17 -9
19 -16 8 -5 -9 -9 28 -9 94 0 70 4 106 10 102 6 -3 11 0 11 7 1 7 3 5 6 -5 3
-10 -1 -25 -8 -33z m1578 24 c68 -30 89 -80 99 -233 3 -38 9 -79 14 -90 16
-35 36 -513 22 -527 -16 -16 -70 19 -91 60 -24 48 -69 192 -111 352 -19 73
-23 109 -27 256 l-4 152 27 21 c31 25 34 25 71 9z m2732 2 c44 -23 67 -179 42
-279 -5 -20 -14 -61 -21 -91 -15 -76 -30 -132 -41 -152 -5 -10 -9 -31 -9 -47
0 -17 -4 -33 -10 -36 -5 -3 -10 -17 -10 -30 0 -13 -4 -27 -10 -30 -5 -3 -10
-15 -10 -25 0 -10 -6 -31 -14 -47 -8 -15 -20 -40 -27 -55 -19 -43 -47 -68 -77
-68 l-27 0 2 127 c2 71 7 171 13 223 6 52 12 131 15 175 10 164 30 263 59 290
52 49 91 64 125 45z m-4993 -116 c40 -34 78 -64 85 -66 9 -3 15 -38 20 -114 4
-60 9 -122 12 -139 3 -16 11 -73 18 -125 21 -176 139 -620 199 -755 10 -22 40
-92 68 -155 27 -64 61 -135 76 -158 14 -23 26 -46 26 -51 0 -6 20 -42 45 -80
25 -38 45 -73 45 -78 0 -5 10 -20 21 -32 l22 -23 -23 7 c-37 12 -68 54 -122
165 -27 58 -68 141 -89 186 -21 44 -39 87 -39 96 0 8 -8 26 -18 39 -17 22 -75
173 -124 324 -21 66 -77 286 -103 410 -9 44 -18 86 -20 92 -4 13 -35 6 -46
-10 -4 -5 -12 -6 -18 -3 -8 5 -2 24 19 61 21 36 31 68 32 97 1 70 -14 181 -28
209 -7 14 -49 58 -93 98 -45 40 -78 77 -75 83 7 10 11 7 110 -78z m411 75 c-9
-6 -31 -8 -48 -5 -52 8 -45 16 12 16 42 -1 50 -3 36 -11z m6527 2 c9 -14 -24
-22 -45 -11 -10 6 -19 13 -19 15 0 9 59 5 64 -4z m-324 -149 c-8 -3 -8 -8 0
-17 8 -10 8 -19 1 -34 -6 -11 -8 -26 -5 -35 16 -41 -46 -407 -95 -566 -30 -96
-88 -255 -106 -290 -48 -92 -223 -141 -308 -85 -37 24 -30 27 25 8 38 -12 56
-13 100 -4 113 24 135 53 211 286 54 164 87 300 116 480 12 72 26 157 32 190
6 33 12 80 13 105 1 25 6 54 12 65 7 16 10 7 12 -40 2 -37 -1 -61 -8 -63z
m-6910 -62 c30 -5 75 -15 99 -22 l45 -14 12 -64 c6 -36 14 -105 18 -155 4 -49
11 -108 16 -130 5 -22 10 -56 10 -76 0 -35 -3 -37 -99 -92 -70 -40 -105 -54
-122 -51 -17 4 -20 3 -11 -4 11 -7 10 -11 -5 -16 -10 -4 -45 -21 -78 -39 -57
-32 -60 -35 -59 -70 2 -48 -12 -48 -25 0 -13 46 -5 54 89 106 36 19 92 50 125
69 33 18 81 44 108 57 26 14 47 31 47 40 0 9 -7 57 -16 106 -9 50 -21 137 -27
195 l-12 104 -65 13 c-59 12 -84 20 -131 43 -8 4 -29 6 -45 4 -28 -3 -28 -3
-4 5 14 5 36 7 50 4 14 -3 50 -9 80 -13z m7933 -7 c-7 -2 -21 -2 -30 0 -10 3
-4 5 12 5 17 0 24 -2 18 -5z m-63 -13 c-8 -5 -23 -10 -33 -10 -10 0 -15 -4
-12 -10 3 -5 1 -10 -4 -10 -6 0 -11 6 -11 14 0 15 18 23 55 25 16 1 17 -1 5
-9z m-70 -4 c0 -15 -14 -35 -21 -30 -12 7 -29 -40 -29 -81 0 -19 -5 -37 -10
-40 -6 -4 -8 -11 -5 -16 8 -13 -4 -49 -16 -49 -6 0 -7 6 -1 16 5 9 7 25 5 35
-3 11 -2 47 1 82 6 57 10 65 34 74 31 12 42 15 42 9z m-7463 -158 c-3 -8 -6
-5 -6 6 -1 11 2 17 5 13 3 -3 4 -12 1 -19z m-37 -173 c0 -23 -26 -81 -40 -90
-23 -14 -23 6 0 55 23 50 40 64 40 35z m7412 -81 c-7 -34 -7 -53 0 -62 8 -9 7
-11 -5 -6 -9 3 -19 14 -22 24 -7 22 4 70 15 70 5 0 6 10 3 23 -5 17 -3 19 7
10 9 -8 10 -23 2 -59z m-5277 -9 c-41 -51 -108 -104 -260 -207 -59 -40 -127
-86 -150 -103 -23 -16 -55 -39 -71 -50 -16 -11 -52 -38 -80 -60 -28 -22 -71
-52 -95 -67 -24 -15 -84 -54 -134 -86 -113 -74 -160 -92 -235 -92 -62 0 -163
31 -190 58 -13 13 -13 14 5 7 58 -22 146 -37 200 -32 78 6 146 38 282 134 59
42 216 151 348 241 318 218 372 258 392 293 10 16 19 25 21 19 2 -6 -13 -31
-33 -55z m3185 -115 c19 -15 21 -20 8 -20 -14 0 -128 84 -128 95 0 6 87 -48
120 -75z m2135 40 c3 -6 -1 -7 -9 -4 -18 7 -21 14 -7 14 6 0 13 -4 16 -10z
m154 -77 c2 -2 2 -6 -2 -9 -3 -3 -19 3 -35 15 -17 12 -35 21 -41 21 -6 0 -11
5 -11 11 0 8 53 -15 89 -38z m-2201 -25 c26 -17 49 -34 52 -37 3 -4 31 -24 62
-45 32 -22 66 -48 75 -60 12 -13 13 -17 3 -10 -8 6 -60 41 -115 77 -55 36
-111 75 -125 86 -40 33 -3 24 48 -11z m2241 1 c-7 -4 -17 -5 -22 -2 -5 3 -3 9
4 14 7 4 17 5 22 2 5 -3 3 -9 -4 -14z m47 -24 c2 -11 -3 -12 -23 -2 -22 10
-23 12 -6 18 20 7 26 4 29 -16z m-4451 -115 c-3 -5 -12 -10 -18 -10 -7 0 -6 4
3 10 19 12 23 12 15 0z m850 -91 c246 -161 355 -209 473 -209 130 0 232 53
277 146 26 54 29 56 37 34 24 -65 -70 -176 -179 -212 -91 -30 -178 -22 -328
31 -101 36 -184 83 -275 158 -40 33 -140 111 -161 126 l-24 17 30 -7 c17 -3
84 -41 150 -84z m-885 75 c0 -11 -39 -41 -70 -54 -17 -7 -30 -16 -30 -21 0 -5
-10 -9 -21 -9 -19 0 -142 -74 -172 -104 -23 -23 -92 -63 -147 -86 -30 -12 -64
-26 -75 -30 -27 -12 -78 -21 -148 -27 -57 -5 -147 13 -147 29 0 4 -6 8 -12 8
-7 0 -24 12 -37 25 -13 14 -26 25 -30 25 -11 0 -39 53 -41 80 -8 88 6 98 30
21 30 -93 118 -145 245 -143 66 1 96 7 175 37 52 20 97 39 100 43 5 6 64 40
117 66 13 6 23 14 23 19 0 4 6 7 13 7 6 0 43 21 82 46 105 69 145 88 145 68z
m2645 -14 c3 -5 1 -10 -4 -10 -6 0 -11 5 -11 10 0 6 2 10 4 10 3 0 8 -4 11
-10z m-205 -10 c0 -5 -2 -10 -4 -10 -3 0 -8 5 -11 10 -3 6 -1 10 4 10 6 0 11
-4 11 -10z m-2344 -18 c-3 -5 -24 -22 -47 -38 -24 -16 -74 -61 -113 -99 -123
-122 -213 -183 -336 -227 -95 -35 -270 -53 -270 -28 0 6 33 10 78 10 77 1 198
32 224 58 7 7 16 12 21 12 4 0 24 12 43 26 19 15 48 34 64 43 45 25 76 50 169
134 82 73 188 143 167 109z m679 -58 c52 -30 97 -54 100 -54 3 0 35 -24 70
-53 35 -29 77 -60 92 -68 15 -8 36 -21 46 -29 25 -21 164 -71 214 -77 47 -6
49 -23 3 -23 -33 0 -122 21 -130 31 -3 3 -18 9 -34 13 -17 4 -42 16 -58 27
-15 11 -32 18 -37 14 -6 -3 -13 0 -18 8 -4 7 -20 18 -34 24 -14 6 -64 40 -110
75 -46 35 -108 78 -138 96 -29 18 -65 44 -80 58 -25 25 -26 26 -3 19 13 -4 66
-31 117 -61z m1730 38 c22 -15 52 -38 65 -51 l25 -24 -42 23 c-24 13 -43 27
-43 32 0 4 -5 8 -10 8 -6 0 -20 9 -32 20 -31 29 -10 24 37 -8z m1032 -8 c-3
-3 -12 -4 -19 -1 -8 3 -5 6 6 6 11 1 17 -2 13 -5z m-3428 -61 c-91 -98 -116
-121 -136 -127 -13 -4 -23 -4 -23 1 0 10 102 110 144 141 45 34 52 26 15 -15z
m535 7 c17 -10 56 -45 87 -77 39 -40 79 -69 130 -93 89 -41 84 -38 76 -46 -11
-12 -100 27 -162 71 -125 88 -236 211 -131 145z m-4284 -40 c0 -20 -2 -22 -10
-10 -5 8 -10 26 -10 40 0 20 2 22 10 10 5 -8 10 -26 10 -40z m3490 32 c0 -11
-70 -75 -146 -133 -64 -50 -154 -103 -154 -91 0 4 29 28 63 54 34 26 71 55 82
65 39 35 140 113 148 113 4 0 7 -4 7 -8z m618 -44 c34 -17 62 -34 62 -38 0
-26 -34 -31 -162 -26 -73 3 -148 6 -165 7 -22 0 -33 5 -33 15 0 8 4 14 10 14
5 0 37 13 72 29 103 48 115 48 216 -1z m2378 14 c-4 -3 -14 2 -24 12 -16 18
-16 18 6 6 13 -6 21 -14 18 -18z m624 18 c0 -5 -5 -10 -11 -10 -5 0 -7 5 -4
10 3 6 8 10 11 10 2 0 4 -4 4 -10z m-814 -31 c3 -6 -5 -3 -20 6 -14 10 -26 19
-26 22 0 7 39 -17 46 -28z m-811 -75 c50 -24 135 -68 190 -97 55 -30 145 -78
200 -107 55 -29 129 -69 165 -89 36 -20 78 -43 95 -51 54 -28 113 -92 120
-133 12 -60 -15 -103 -154 -244 -173 -176 -408 -366 -551 -446 -25 -13 -87
-48 -139 -76 -109 -61 -238 -122 -301 -144 -25 -8 -66 -25 -93 -36 -58 -25
-265 -85 -367 -106 -100 -20 -148 -19 -188 5 -36 22 -47 44 -57 112 l-7 46 73
43 c75 45 196 157 223 206 8 15 21 42 29 59 16 33 37 53 37 34 0 -6 -9 -30
-20 -52 -35 -72 -23 -76 53 -19 127 95 219 224 263 372 7 25 25 56 40 70 40
37 89 119 120 200 25 67 28 88 30 217 l3 143 39 39 c22 21 45 54 52 74 14 44
15 44 145 -20z m-2795 -2 c0 -5 21 -29 47 -55 l46 -46 2 -123 c1 -113 4 -130
33 -208 18 -47 44 -103 58 -125 31 -51 94 -183 94 -197 0 -19 70 -141 98 -172
35 -37 101 -86 118 -86 7 0 14 12 16 27 3 25 5 22 32 -28 40 -74 149 -177 247
-234 44 -25 83 -45 85 -42 3 2 -1 16 -7 31 -17 36 -2 47 22 16 49 -63 77 -92
112 -115 33 -22 37 -30 37 -66 0 -49 -27 -91 -70 -109 -102 -42 -543 89 -875
261 -308 159 -500 302 -761 569 -114 117 -134 147 -134 203 0 91 22 107 523
373 241 128 277 144 277 126z m3748 -11 c82 -43 197 -59 277 -38 l30 7 -30
-17 c-20 -12 -53 -17 -100 -18 -59 0 -81 5 -137 32 -38 18 -68 35 -68 38 0 7
8 6 28 -4z m-4269 -25 c-11 -11 -162 -96 -169 -96 -5 0 -52 -29 -104 -64 -53
-35 -96 -60 -96 -55 0 6 16 19 35 30 19 12 35 25 35 30 0 5 4 9 10 9 13 0 157
81 178 100 9 9 35 23 57 32 39 16 62 22 54 14z m1756 -6 c3 -5 35 -10 70 -10
35 0 67 5 70 10 7 11 192 14 197 3 2 -5 23 -19 48 -32 25 -13 64 -34 86 -46
40 -21 88 -42 127 -54 15 -5 11 -14 -27 -57 -38 -43 -129 -104 -157 -104 -25
0 -120 44 -148 69 l-33 29 56 13 c66 14 77 35 14 24 -24 -4 -135 -9 -248 -11
-113 -1 -207 -7 -210 -11 -3 -4 12 -9 33 -11 46 -4 47 -15 5 -33 -18 -7 -35
-16 -38 -20 -8 -11 -93 -49 -109 -49 -63 1 -164 69 -197 133 -14 25 -13 27 5
27 11 0 22 4 25 9 3 4 34 18 68 31 35 12 65 26 68 30 3 4 30 21 60 38 49 27
65 30 142 31 48 1 90 -3 93 -9z m-3384 -160 c6 0 7 -5 3 -11 -8 -14 -24 8 -23
31 1 11 3 10 6 -2 2 -10 9 -18 14 -18z m63 -153 c5 -19 3 -26 -4 -22 -17 11
-40 74 -33 92 6 14 9 12 19 -12 6 -17 14 -43 18 -58z m1150 39 c-9 -15 -19
-25 -21 -22 -5 5 30 56 35 51 2 -2 -4 -15 -14 -29z m-484 -26 c18 -11 16 -13
-37 -33 -41 -16 -43 -16 -43 1 0 36 45 55 80 32z m5650 0 c13 -9 13 -11 0 -20
-18 -12 -70 -13 -70 -2 0 27 42 40 70 22z m-3940 -25 c-6 -8 -11 -42 -10 -77
2 -79 1 -88 -10 -63 -21 48 -3 174 22 159 5 -3 4 -12 -2 -19z m-1264 -22 c-7
-20 -18 -39 -24 -41 -6 -2 -2 15 9 37 24 51 32 53 15 4z m3384 -19 c9 -41 9
-72 1 -120 -22 -123 -29 -114 -28 33 1 79 5 143 9 143 4 0 12 -25 18 -56z
m-1970 -41 c0 -67 9 -118 37 -205 12 -38 -13 -15 -35 31 -28 61 -37 123 -28
195 11 81 26 68 26 -21z m-2560 20 c-54 -46 -68 -48 -22 -3 24 23 46 39 49 36
3 -3 -9 -18 -27 -33z m3240 -18 c0 -13 -45 -93 -75 -135 -43 -60 -78 -125 -95
-180 -16 -47 -18 -145 -6 -194 12 -50 -19 -7 -38 52 -23 67 -15 147 20 206 14
22 27 49 31 59 3 9 9 17 14 17 5 0 15 12 23 28 9 15 34 47 56 72 22 24 43 52
46 62 5 16 24 26 24 13z m452 -136 c7 -16 16 -29 20 -29 17 0 7 43 -23 101
-29 58 -32 78 -10 65 15 -10 77 -136 86 -176 11 -46 7 -121 -10 -194 -22 -92
-32 -88 -37 16 -4 67 -12 109 -29 148 -12 30 -26 57 -30 60 -3 3 -25 39 -48
80 l-41 75 55 -59 c30 -32 60 -72 67 -87z m-548 116 c-7 -16 -24 -21 -24 -6 0
8 7 13 27 20 1 1 0 -6 -3 -14z m150 -46 c-18 -45 -52 -101 -66 -107 -4 -2 -8
-8 -8 -14 0 -6 -11 -25 -24 -43 -30 -39 -56 -100 -56 -131 0 -12 -4 -26 -10
-29 -18 -11 -11 72 11 131 21 56 28 66 82 127 15 18 39 51 54 75 32 53 39 49
17 -9z m600 -16 c15 -45 23 -193 9 -180 -3 4 -12 46 -18 95 -7 48 -15 98 -19
110 -14 44 13 21 28 -25z m-780 25 c-25 -42 -84 -114 -84 -103 0 12 23 49 46
74 13 14 24 29 24 33 0 5 5 8 11 8 5 0 7 -6 3 -12z m-296 -80 c-19 -52 -23
-83 -23 -178 0 -63 4 -131 8 -150 l8 -35 -25 40 c-14 22 -28 60 -31 85 -4 25
-8 59 -10 75 -2 17 2 44 10 59 8 15 13 32 10 36 -3 4 5 30 17 56 49 112 76
120 36 12z m1282 63 c22 -42 30 -152 14 -217 -14 -60 -70 -174 -86 -174 -10 0
-11 34 -1 44 6 6 24 49 44 111 6 17 10 81 9 143 0 61 2 112 4 112 3 0 10 -9
16 -19z m-4217 -20 c-9 -12 -22 -21 -27 -21 -5 0 1 11 14 25 28 30 39 26 13
-4z m4425 4 c19 -41 14 -134 -10 -202 -21 -62 -47 -89 -33 -35 4 15 9 80 12
145 3 64 8 117 12 117 4 0 13 -11 19 -25z m-3893 -137 c5 -5 2 -8 -7 -8 -9 0
-26 9 -39 20 l-24 20 30 -12 c17 -6 34 -15 40 -20z m151 -83 c14 -19 30 -32
35 -29 5 3 6 -1 4 -8 -3 -8 4 -23 15 -35 11 -12 20 -25 20 -29 0 -7 61 -85 88
-113 7 -7 16 -11 19 -7 9 8 34 -14 27 -25 -3 -5 8 -26 23 -46 35 -46 63 -75
63 -65 0 4 8 -9 17 -28 10 -19 40 -59 68 -88 27 -29 52 -59 54 -65 12 -39
-318 336 -391 443 -10 14 -30 43 -46 65 -41 58 -44 65 -33 65 5 0 22 -16 37
-35z m2978 -55 c27 -81 15 -242 -22 -305 -10 -17 -11 -15 -6 15 3 19 7 40 9
47 6 17 -13 263 -21 293 -14 48 23 3 40 -50z m-2340 -50 c6 -8 1 -7 -11 4 -13
10 -20 23 -16 29 4 7 8 6 11 -3 3 -8 10 -22 16 -30z m2084 -252 c14 -14 16
-48 3 -48 -5 0 -15 17 -21 38 -7 20 -16 41 -21 47 -13 14 -11 164 3 210 12 37
13 30 18 -97 3 -90 9 -141 18 -150z m3085 152 c-3 -11 -7 -20 -9 -20 -2 0 -4
9 -4 20 0 11 4 20 9 20 5 0 7 -9 4 -20z m-5566 -62 c-3 -8 -6 -5 -6 6 -1 11 2
17 5 13 3 -3 4 -12 1 -19z m52 -5 c-3 -21 2 -33 12 -28 10 7 49 -21 49 -35 0
-4 -9 -7 -20 -6 -21 1 -63 54 -54 68 6 10 14 10 13 1z m3001 -93 c-12 -43 -47
-100 -62 -100 -9 0 9 36 30 58 6 7 12 23 12 35 0 38 12 69 22 59 6 -6 5 -26
-2 -52z m2420 20 c0 -5 -5 -10 -11 -10 -5 0 -7 5 -4 10 3 6 8 10 11 10 2 0 4
-4 4 -10z m-5337 -24 c4 -10 1 -13 -9 -9 -7 3 -14 9 -14 14 0 14 17 10 23 -5z
m963 -168 c109 -72 294 -171 439 -233 50 -21 108 -46 130 -56 150 -65 492
-146 715 -169 139 -14 485 -12 635 4 145 16 387 64 514 103 211 64 513 202
711 326 114 71 120 72 141 9 7 -20 31 -75 55 -121 24 -47 41 -88 38 -93 -20
-31 -87 44 -98 109 -3 21 -14 50 -24 65 l-18 27 -54 -37 c-159 -109 -445 -249
-643 -315 -368 -123 -638 -164 -1022 -154 -208 6 -299 15 -455 46 -25 5 -70
14 -100 20 -193 37 -460 131 -671 236 -105 52 -206 109 -328 186 -35 22 -67
37 -71 32 -5 -4 -45 -80 -91 -168 -151 -293 -141 -277 -156 -262 -12 12 -11
22 7 67 43 108 224 458 235 452 5 -3 55 -37 111 -74z m-821 -77 c-3 -3 -22 12
-43 33 l-37 39 42 -33 c24 -18 41 -36 38 -39z m78 -66 c32 -31 37 -46 5 -19
-41 35 -49 44 -41 44 4 0 21 -11 36 -25z m706 -14 c10 -6 5 -15 -21 -35 -19
-14 -38 -26 -41 -26 -16 0 -5 40 15 54 26 18 28 19 47 7z m3221 -35 c0 -19
-34 -76 -43 -73 -17 5 -21 45 -7 63 11 12 50 21 50 10z m43 -63 c-10 -26 -19
-12 -15 19 4 28 6 30 12 13 4 -11 5 -26 3 -32z m-3258 28 c-3 -5 0 -13 6 -17
8 -4 7 -9 -2 -15 -19 -12 -49 -11 -49 1 0 6 9 10 20 10 11 0 19 3 19 8 -2 12
1 22 7 22 3 0 3 -4 -1 -9z m3825 -44 c0 -5 -97 -77 -103 -77 -4 0 13 18 35 40
35 33 68 51 68 37z m-379 -40 c-10 -9 -11 -8 -5 6 3 10 9 15 12 12 3 -3 0 -11
-7 -18z m24 -17 c3 -5 -1 -10 -10 -10 -9 0 -13 5 -10 10 3 6 8 10 10 10 2 0 7
-4 10 -10z m-3114 -113 c184 -75 213 -101 211 -188 -1 -73 -18 -113 -63 -153
-39 -36 -48 -59 -29 -71 6 -3 10 -31 10 -60 0 -73 -36 -153 -86 -191 -59 -45
-119 -41 -272 21 -67 28 -122 53 -122 57 0 6 34 99 207 561 13 37 28 67 31 67
4 0 55 -20 113 -43z m2625 -29 c15 -46 15 -64 5 -172 -18 -181 -19 -195 -25
-278 -3 -43 -4 -78 -2 -78 2 0 34 12 72 26 38 14 82 30 97 36 16 6 32 7 36 2
14 -16 43 -102 38 -111 -5 -8 -45 -25 -187 -78 -19 -7 -66 -23 -105 -35 -38
-13 -75 -25 -82 -27 -7 -3 -18 15 -26 45 -13 44 -13 66 3 213 26 240 30 309
19 309 -6 0 -44 -12 -86 -26 -50 -17 -78 -23 -85 -16 -18 18 -38 123 -25 128
51 18 323 113 329 113 3 1 14 -22 24 -51z m-3360 -75 c-10 -10 -19 5 -10 18 6
11 8 11 12 0 2 -7 1 -15 -2 -18z m-4 -27 c7 4 8 2 4 -5 -9 -13 -26 -5 -25 12
0 9 2 8 6 -1 2 -6 10 -9 15 -6z m1297 -41 c168 -41 211 -78 211 -181 0 -81
-33 -158 -85 -201 -42 -35 -41 -18 -14 -198 5 -33 12 -77 15 -98 l6 -38 -63 7
c-104 11 -106 13 -114 91 -10 113 -27 213 -36 213 -9 0 -11 -8 -34 -115 -25
-117 -33 -135 -62 -135 -30 0 -115 20 -126 30 -4 4 1 40 11 81 11 41 25 101
32 134 7 33 24 103 38 155 32 128 39 156 52 215 15 74 17 78 43 71 12 -3 69
-18 126 -31z m1605 -122 c15 -87 31 -172 37 -189 5 -17 9 -41 9 -54 0 -12 4
-39 10 -59 10 -38 40 -196 40 -210 0 -5 -12 -11 -27 -14 -16 -3 -48 -10 -73
-16 -51 -11 -57 -7 -107 84 -56 104 -117 191 -121 172 -2 -10 6 -77 18 -148
13 -74 18 -135 13 -140 -4 -4 -40 -9 -78 -11 l-70 -3 -7 50 c-3 28 -11 79 -17
115 -6 36 -15 97 -21 135 -7 39 -15 93 -20 120 -4 28 -13 86 -19 130 -7 44
-14 87 -17 96 -3 12 8 18 47 27 62 15 109 15 109 2 0 -6 17 -36 37 -68 98
-151 125 -192 127 -192 2 0 -7 60 -20 133 -32 181 -33 172 24 184 104 23 95
34 126 -144z m-2924 108 c0 -4 -7 -8 -15 -8 -16 0 -20 9 -9 20 8 8 24 -1 24
-12z m-10 -34 c0 -4 -9 -26 -21 -48 -17 -33 -23 -38 -35 -29 -17 15 -19 34 -2
24 6 -4 8 -3 5 4 -9 14 3 43 14 36 5 -3 6 2 3 10 -4 10 0 14 15 13 12 -1 21
-5 21 -10z m2358 -88 l-3 -64 -82 -3 -83 -3 0 -59 0 -59 73 -3 72 -3 0 -65 0
-65 -67 -9 c-75 -9 -75 -8 -70 -99 l4 -60 89 7 89 7 0 -65 0 -64 -117 -7 c-65
-4 -143 -8 -173 -9 l-55 -1 -8 225 c-4 124 -6 277 -5 340 l3 114 100 4 c55 2
127 7 160 11 33 4 64 4 68 1 4 -4 7 -36 5 -71z m-502 -41 c-14 -272 -26 -457
-32 -510 l-6 -58 -72 0 c-39 0 -76 4 -83 8 -12 8 -9 76 22 452 8 102 15 193
15 203 0 15 11 17 81 17 l82 0 -7 -112z m-1736 29 c0 -12 -12 -21 -62 -45 -5
-2 -8 6 -8 17 0 13 9 25 23 31 32 13 47 12 47 -3z m3848 -39 c19 -19 14 -28
-14 -28 -29 0 -64 16 -64 30 0 14 64 12 78 -2z m-3818 -7 c0 -13 -41 -41 -60
-41 -10 1 -4 9 15 25 32 26 45 31 45 16z"/>
<path d="M5343 8403 c15 -2 37 -2 50 0 12 2 0 4 -28 4 -27 0 -38 -2 -22 -4z"/>
<path d="M4651 8389 c-83 -11 -101 -17 -81 -29 8 -5 18 -6 22 -3 5 2 15 0 22
-7 9 -6 25 -8 43 -3 15 4 34 6 41 5 6 -2 12 2 12 8 0 6 5 8 10 5 6 -4 8 -11 5
-16 -4 -5 5 -4 19 3 14 6 26 19 26 30 0 20 -12 21 -119 7z"/>
<path d="M5220 8365 c0 -8 7 -15 15 -15 8 0 15 7 15 15 0 8 -7 15 -15 15 -8 0
-15 -7 -15 -15z"/>
<path d="M4108 8283 c7 -3 16 -2 19 1 4 3 -2 6 -13 5 -11 0 -14 -3 -6 -6z"/>
<path d="M5371 8214 c0 -11 3 -14 6 -6 3 7 2 16 -1 19 -3 4 -6 -2 -5 -13z"/>
<path d="M5160 8110 c0 -60 2 -70 18 -70 30 0 43 16 49 57 7 51 -10 83 -42 83
-24 0 -25 -2 -25 -70z"/>
<path d="M4797 8163 c-26 -7 -21 -106 6 -111 10 -2 17 3 17 12 0 16 10 20 43
17 9 -1 17 2 17 7 0 5 10 12 21 15 14 4 20 11 16 21 -4 11 -1 13 11 9 14 -6
15 -4 5 9 -7 8 -10 18 -6 21 7 8 -102 7 -130 0z"/>
<path d="M4316 8101 c-7 -11 12 -109 22 -115 4 -2 17 0 30 5 17 6 22 16 22 44
0 20 -5 45 -10 56 -11 20 -54 26 -64 10z"/>
<path d="M4527 7994 c-16 -34 -15 -54 2 -54 8 0 23 81 17 87 -1 2 -10 -13 -19
-33z"/>
<path d="M5470 8020 c0 -5 5 -10 10 -10 6 0 10 5 10 10 0 6 -4 10 -10 10 -5 0
-10 -4 -10 -10z"/>
<path d="M4920 7930 c0 -6 -27 -10 -60 -10 l-60 0 0 -47 c0 -61 9 -95 24 -90
6 3 10 9 9 15 -3 13 17 29 42 34 34 6 60 37 60 74 1 18 -3 34 -7 34 -4 0 -8
-4 -8 -10z"/>
<path d="M5425 7930 c-3 -5 -1 -10 4 -10 6 0 11 5 11 10 0 6 -2 10 -4 10 -3 0
-8 -4 -11 -10z"/>
<path d="M5522 7860 c0 -14 2 -19 5 -12 2 6 2 18 0 25 -3 6 -5 1 -5 -13z"/>
<path d="M4364 7855 c-3 -8 -1 -29 4 -47 6 -18 13 -45 16 -60 9 -38 53 -40 62
-2 9 37 -3 97 -23 111 -23 17 -52 16 -59 -2z m56 -115 c0 -5 -5 -10 -11 -10
-5 0 -7 5 -4 10 3 6 8 10 11 10 2 0 4 -4 4 -10z"/>
<path d="M5485 7830 c3 -5 10 -10 16 -10 5 0 9 5 9 10 0 6 -7 10 -16 10 -8 0
-12 -4 -9 -10z"/>
<path d="M5402 7771 c2 -7 7 -12 11 -12 12 1 9 15 -3 20 -7 2 -11 -2 -8 -8z"/>
<path d="M3014 8125 c-4 -8 -16 -15 -27 -15 -16 0 -18 -3 -10 -11 6 -6 23 -11
37 -11 14 0 23 -4 21 -8 -3 -5 4 -6 15 -3 28 7 33 19 18 43 -15 23 -46 27 -54
5z"/>
<path d="M6846 8234 c-5 -14 -4 -15 9 -4 17 14 19 20 6 20 -5 0 -12 -7 -15
-16z"/>
<path d="M3861 7981 c-11 -7 -11 -17 3 -58 24 -71 40 -91 63 -77 14 9 18 23
16 59 -2 67 -40 102 -82 76z"/>
<path d="M6650 7779 c-116 -229 -140 -315 -87 -307 29 4 64 59 132 210 62 138
66 171 23 176 -25 3 -31 -4 -68 -79z"/>
<path d="M3519 7641 c26 -91 36 -103 69 -82 11 7 5 23 -29 77 -64 103 -69 104
-40 5z"/>
<path d="M7080 7613 c-59 -99 -62 -106 -48 -114 25 -16 50 -9 79 22 35 38 45
72 30 105 -15 34 -36 30 -61 -13z"/>
<path d="M2280 7570 c0 -5 5 -10 11 -10 5 0 7 5 4 10 -3 6 -8 10 -11 10 -2 0
-4 -4 -4 -10z"/>
<path d="M2540 7172 c0 -5 7 -13 16 -16 10 -4 14 -1 12 6 -5 15 -28 23 -28 10z"/>
<path d="M2521 7134 c0 -11 3 -14 6 -6 3 7 2 16 -1 19 -3 4 -6 -2 -5 -13z"/>
<path d="M1827 6382 c3 -12 9 -25 14 -28 14 -8 11 10 -6 32 -13 18 -14 18 -8
-4z"/>
<path d="M1668 6073 c-21 -5 -24 -33 -5 -33 14 0 37 20 37 32 0 8 -4 9 -32 1z"/>
<path d="M1618 6012 c-19 -4 -33 -32 -16 -32 7 0 2 -9 -10 -20 -25 -24 -28
-35 -7 -27 17 7 30 -9 15 -18 -16 -10 -12 -25 5 -19 18 7 20 -18 5 -47 -6 -10
-7 -19 -3 -19 16 0 28 16 31 39 1 13 9 29 16 35 8 6 17 20 20 32 8 26 -32 81
-56 76z"/>
<path d="M1757 5924 c-4 -4 -7 -14 -7 -23 0 -11 3 -12 11 -4 6 6 10 16 7 23
-2 6 -7 8 -11 4z"/>
<path d="M1560 5899 c0 -5 5 -7 10 -4 6 3 10 8 10 11 0 2 -4 4 -10 4 -5 0 -10
-5 -10 -11z"/>
<path d="M1082 5802 c-5 -9 -14 -43 -21 -74 -11 -50 -10 -60 5 -83 15 -23 15
-28 3 -36 -11 -6 -15 -2 -18 19 -3 24 -5 22 -17 -18 -25 -83 -21 -92 49 -125
34 -17 65 -31 70 -33 4 -2 7 6 7 17 0 12 9 29 19 38 11 9 17 23 14 32 -4 11 2
8 16 -6 32 -34 32 -35 16 40 -6 28 -7 28 -30 13 -24 -16 -24 -15 -34 21 -8 29
-7 44 4 66 11 22 12 34 4 43 -6 7 -8 18 -4 24 4 6 -1 20 -11 31 -16 18 -16 19
5 19 41 0 16 25 -27 27 -31 1 -44 -3 -50 -15z"/>
<path d="M1238 5803 c-5 -7 -8 -20 -4 -28 8 -22 36 -19 36 4 0 14 5 18 19 14
10 -3 22 0 25 6 8 12 6 13 -37 15 -15 1 -33 -4 -39 -11z"/>
<path d="M1470 5750 c0 -5 5 -10 10 -10 6 0 10 5 10 10 0 6 -4 10 -10 10 -5 0
-10 -4 -10 -10z"/>
<path d="M1193 5734 c-3 -8 3 -21 13 -29 22 -16 38 -6 29 18 -9 22 -35 29 -42
11z"/>
<path d="M1283 5735 c-3 -9 -3 -18 0 -21 9 -9 27 6 27 22 0 19 -19 18 -27 -1z"/>
<path d="M1333 5738 c-14 -19 -23 -57 -13 -63 14 -8 42 44 32 61 -7 12 -10 13
-19 2z"/>
<path d="M1695 5730 c3 -5 8 -10 11 -10 2 0 4 5 4 10 0 6 -5 10 -11 10 -5 0
-7 -4 -4 -10z"/>
<path d="M1276 5681 c-4 -6 -4 -11 1 -11 4 0 1 -5 -7 -10 -12 -8 -11 -10 8
-10 24 0 27 7 13 29 -6 9 -11 10 -15 2z"/>
<path d="M1200 5635 c0 -8 7 -15 16 -15 14 0 14 3 4 15 -7 8 -14 15 -16 15 -2
0 -4 -7 -4 -15z"/>
<path d="M1285 5610 c-3 -5 -12 -7 -20 -4 -20 8 -35 -4 -28 -21 8 -21 46 -18
66 5 9 11 17 22 17 25 0 9 -29 5 -35 -5z"/>
<path d="M1450 5527 c0 -21 11 -27 31 -16 27 14 23 29 -6 29 -14 0 -25 -6 -25
-13z"/>
<path d="M1331 5496 c27 -28 34 -27 24 3 -4 12 -15 21 -27 21 -19 0 -19 -1 3
-24z"/>
<path d="M1435 5439 c-11 -17 1 -21 15 -4 8 9 8 15 2 15 -6 0 -14 -5 -17 -11z"/>
<path d="M1382 5418 c5 -15 28 -23 28 -10 0 5 -7 13 -16 16 -10 4 -14 1 -12
-6z"/>
<path d="M1520 4802 c0 -7 -10 -12 -21 -12 -18 0 -19 -2 -9 -15 7 -8 16 -15
21 -15 10 0 23 40 15 47 -3 4 -6 1 -6 -5z"/>
<path d="M3035 7606 c-18 -13 -17 -16 16 -62 37 -51 64 -62 83 -31 9 13 6 27
-13 62 -25 48 -50 57 -86 31z"/>
<path d="M3170 7395 c-10 -12 -5 -25 27 -72 21 -31 43 -58 50 -61 18 -5 46 44
38 68 -20 61 -86 100 -115 65z"/>
<path d="M3234 6845 c-10 -8 -14 -15 -8 -15 6 0 17 7 24 15 16 19 9 19 -16 0z"/>
<path d="M1981 5744 c0 -11 3 -14 6 -6 3 7 2 16 -1 19 -3 4 -6 -2 -5 -13z"/>
<path d="M1975 5690 c-4 -12 -5 -24 -2 -27 3 -2 8 5 12 17 4 12 5 24 2 27 -3
2 -8 -5 -12 -17z"/>
<path d="M1841 4834 c0 -11 3 -14 6 -6 3 7 2 16 -1 19 -3 4 -6 -2 -5 -13z"/>
<path d="M8581 3904 c0 -11 3 -14 6 -6 3 7 2 16 -1 19 -3 4 -6 -2 -5 -13z"/>
<path d="M8547 3904 c-4 -4 -7 -14 -7 -23 0 -11 3 -12 11 -4 6 6 10 16 7 23
-2 6 -7 8 -11 4z"/>
<path d="M8376 3161 c-4 -7 -5 -15 -2 -18 9 -9 19 4 14 18 -4 11 -6 11 -12 0z"/>
<path d="M7460 1904 c0 -14 3 -14 15 -4 8 7 15 14 15 16 0 2 -7 4 -15 4 -8 0
-15 -7 -15 -16z"/>
<path d="M3139 5958 c-10 -45 -8 -78 5 -78 8 0 19 6 23 14 4 7 13 15 19 17 6
2 -2 14 -18 27 -15 13 -28 22 -29 20z"/>
<path d="M3250 5817 c0 -24 16 -36 38 -30 30 8 28 19 -8 32 -22 7 -30 7 -30
-2z"/>
<path d="M3207 5783 c-8 -13 -2 -48 9 -47 5 0 11 8 12 18 4 20 -13 43 -21 29z"/>
<path d="M3111 5753 c-15 -29 1 -48 27 -32 23 15 37 39 23 39 -5 0 -16 3 -24
6 -9 3 -20 -2 -26 -13z m23 -8 c-4 -8 -8 -15 -10 -15 -2 0 -4 7 -4 15 0 8 4
15 10 15 5 0 7 -7 4 -15z"/>
<path d="M3308 5762 c-20 -4 -24 -17 -8 -27 14 -9 40 8 32 21 -4 5 -15 8 -24
6z"/>
<path d="M3490 5709 c0 -5 5 -7 10 -4 6 3 10 8 10 11 0 2 -4 4 -10 4 -5 0 -10
-5 -10 -11z"/>
<path d="M3245 5660 c3 -5 13 -10 21 -10 8 0 12 5 9 10 -3 6 -13 10 -21 10 -8
0 -12 -4 -9 -10z"/>
<path d="M4170 5410 c0 -5 4 -10 9 -10 6 0 13 5 16 10 3 6 -1 10 -9 10 -9 0
-16 -4 -16 -10z"/>
<path d="M4235 4842 c-43 -27 -155 -152 -155 -173 0 -10 -5 -21 -10 -24 -6 -4
-7 -11 -4 -17 4 -5 11 0 18 12 6 12 36 36 66 52 50 28 63 30 144 30 49 -1 94
-6 99 -11 6 -6 21 -11 34 -11 12 0 32 -4 45 -9 13 -5 48 -14 78 -21 68 -15
120 -30 142 -41 10 -5 28 -9 42 -9 13 0 29 -7 36 -15 18 -22 67 -19 80 4 13
25 13 72 -1 108 -9 25 -12 26 -23 11 -11 -15 -15 -13 -39 17 -16 20 -39 35
-59 39 -62 13 -143 27 -183 32 -22 3 -49 9 -60 14 -34 15 -77 22 -150 27 -56
3 -76 0 -100 -15z"/>
<path d="M5695 4850 c-3 -5 -16 -10 -29 -10 -12 0 -26 -4 -31 -9 -6 -5 -30
-12 -55 -15 -70 -9 -172 -24 -207 -32 -20 -4 -47 -22 -68 -45 -19 -22 -41 -38
-47 -37 -20 4 -23 -95 -3 -112 12 -10 18 -10 30 0 24 20 139 52 238 67 20 3
40 9 43 14 3 5 16 9 29 9 13 0 27 5 30 10 3 6 19 10 35 10 16 0 31 4 34 9 3 5
23 11 43 15 21 3 54 8 74 12 23 3 39 2 43 -5 4 -6 17 -11 29 -11 22 0 78 -30
104 -56 40 -39 44 5 6 61 -66 98 -127 135 -223 135 -38 0 -72 -4 -75 -10z"/>
<path d="M4355 4606 c-47 -18 -74 -35 -116 -73 -50 -45 -52 -73 -5 -73 23 0
38 -7 49 -22 16 -23 16 -23 14 11 -2 30 4 39 41 68 24 18 48 33 53 33 5 0 9
-19 9 -43 0 -52 25 -83 74 -92 62 -12 101 11 117 70 6 19 14 35 19 35 4 0 21
-14 37 -32 78 -87 93 -96 93 -58 0 54 -55 114 -145 159 -52 27 -70 31 -135 30
-41 -1 -88 -7 -105 -13z m113 -79 c3 -22 -1 -27 -18 -27 -23 0 -35 22 -26 46
10 25 41 12 44 -19z"/>
<path d="M5502 4595 c-79 -36 -107 -60 -136 -115 -14 -27 -26 -52 -26 -55 0
-10 39 -5 45 5 5 8 11 7 21 -1 11 -9 14 -7 14 15 0 28 65 99 85 93 6 -2 11
-20 13 -40 2 -28 12 -44 40 -67 41 -33 58 -36 96 -16 41 21 66 56 66 93 0 38
6 40 40 16 34 -23 60 -53 60 -70 0 -16 12 -17 28 -1 9 9 15 9 24 0 11 -11 48
-17 48 -9 0 17 -37 71 -65 96 -32 27 -52 39 -128 70 -50 20 -166 13 -225 -14z
m98 -58 c0 -31 -5 -35 -35 -29 -15 2 -25 11 -25 21 0 24 9 31 37 31 17 0 23
-6 23 -23z"/>
<path d="M4913 4513 c-28 -10 -10 -293 18 -293 11 0 12 287 2 293 -5 2 -14 2
-20 0z"/>
<path d="M5806 4421 c-4 -7 -5 -15 -2 -18 9 -9 19 4 14 18 -4 11 -6 11 -12 0z"/>
<path d="M5280 3950 c0 -5 5 -10 10 -10 6 0 10 5 10 10 0 6 -4 10 -10 10 -5 0
-10 -4 -10 -10z"/>
<path d="M4786 3929 c-33 -39 -49 -85 -42 -122 7 -39 40 -82 55 -72 16 9 13
31 -4 45 -20 17 -19 83 1 126 20 41 15 52 -10 23z"/>
<path d="M5305 3908 c19 -62 17 -115 -5 -157 -12 -24 -19 -46 -16 -49 4 -3 22
10 41 28 30 29 35 40 35 81 0 32 -7 59 -22 83 -26 40 -44 47 -33 14z"/>
<path d="M4120 3860 c0 -6 5 -18 10 -28 30 -51 70 -208 70 -273 0 -38 4 -69 9
-69 33 0 20 181 -19 260 -59 119 -70 136 -70 110z"/>
<path d="M4842 3788 c-21 -21 -13 -28 29 -28 23 0 53 -8 67 -18 53 -36 100
-45 151 -31 25 7 57 21 70 31 15 12 41 18 72 18 54 0 63 11 24 28 -42 19 -85
14 -122 -14 -46 -35 -103 -42 -140 -17 -62 42 -126 56 -151 31z"/>
<path d="M5875 5620 c-3 -5 1 -10 9 -10 9 0 16 5 16 10 0 6 -4 10 -9 10 -6 0
-13 -4 -16 -10z"/>
<path d="M8299 5199 c-7 -71 9 -199 23 -199 10 0 7 58 -7 169 -5 37 -14 54
-16 30z"/>
<path d="M8337 4055 c-4 -25 4 -40 17 -28 9 9 7 41 -3 47 -5 3 -11 -6 -14 -19z"/>
<path d="M8184 3777 c-3 -8 -4 -28 -2 -44 2 -21 9 -29 27 -31 13 -2 28 1 34 7
8 8 6 11 -6 11 -11 0 -17 8 -17 24 0 30 -27 55 -36 33z"/>
<path d="M7332 5374 c-55 -33 -72 -68 -72 -147 0 -49 -5 -70 -20 -90 -24 -31
-25 -69 -2 -122 15 -36 17 -84 16 -490 -1 -247 -3 -475 -4 -505 -6 -106 36
-186 112 -214 112 -43 203 -7 253 100 l26 56 -11 186 c-12 181 -8 691 6 896 5
72 3 92 -8 100 -10 7 -17 37 -20 84 -6 81 -22 111 -78 150 -48 32 -140 31
-198 -4z m82 -34 c-18 -4 -46 -17 -63 -29 -31 -22 -42 -21 -18 3 23 23 52 35
82 35 l30 -1 -31 -8z m176 -280 c0 -19 -7 -20 -154 -20 -93 0 -157 4 -161 10
-15 25 13 30 161 30 147 0 154 -1 154 -20z m-80 -66 c0 -3 -35 -38 -77 -77
-42 -40 -88 -84 -101 -99 -14 -16 -29 -28 -34 -28 -4 0 -8 28 -8 62 0 60 2 64
42 105 41 42 43 43 110 43 37 0 68 -3 68 -6z m81 -116 c5 -102 7 -98 -142
-245 -77 -76 -144 -139 -150 -141 -5 -2 -9 26 -9 62 l0 66 138 144 c75 79 143
145 150 145 7 1 13 -12 13 -31z m2 -324 c12 -74 2 -91 -142 -236 -75 -76 -142
-138 -148 -138 -9 0 -13 19 -13 64 l0 65 141 140 c77 78 144 141 148 141 5 0
11 -16 14 -36z m2 -274 c8 -36 0 -76 -25 -125 -35 -69 -46 -75 -125 -75 -39 0
-75 3 -79 7 -6 7 202 222 216 223 3 0 9 -13 13 -30z m-15 -250 c12 -7 12 -13
4 -27 -9 -15 -29 -18 -130 -21 -65 -1 -129 0 -141 3 -22 5 -31 33 -16 48 10
11 266 8 283 -3z"/>
<path d="M2701 5378 c-59 -40 -75 -71 -79 -151 -3 -45 -10 -78 -19 -89 -11
-12 -14 -31 -9 -70 19 -187 24 -331 20 -623 -2 -181 -7 -364 -10 -407 -7 -91
4 -130 52 -186 48 -57 122 -81 188 -61 71 21 115 68 139 150 10 35 12 133 6
464 -5 377 -3 469 17 666 5 49 3 58 -13 70 -16 11 -21 29 -25 90 -5 80 -15
103 -63 141 -23 18 -45 24 -100 26 -60 3 -75 0 -104 -20z m254 -318 c0 -13
-24 -15 -155 -15 -140 0 -155 2 -158 18 -3 16 8 17 155 15 133 -3 158 -5 158
-18z m-175 -69 c0 -8 -114 -111 -124 -111 -3 0 -6 27 -6 60 l0 60 65 0 c36 0
65 -4 65 -9z m167 -28 c3 -9 6 -31 6 -49 0 -29 -16 -50 -134 -169 -74 -75
-142 -141 -151 -146 -16 -9 -18 -4 -18 56 l0 65 131 130 c72 71 137 130 145
130 8 0 17 -7 21 -17z m11 -323 l3 -63 -143 -143 c-79 -79 -149 -144 -155
-144 -9 0 -13 19 -13 63 l0 62 143 147 c78 81 147 145 152 144 6 -1 11 -31 13
-66z m2 -296 l0 -67 -97 -98 -97 -99 -58 0 c-51 0 -58 2 -58 19 0 21 279 311
299 311 7 0 11 -24 11 -66z m-22 -328 c2 -10 -2 -22 -10 -27 -15 -10 -248 -12
-272 -3 -16 6 -22 35 -9 48 4 3 70 5 147 4 129 -3 141 -5 144 -22z"/>
<path d="M3660 4491 c0 -6 5 -13 10 -16 6 -3 10 1 10 9 0 9 -4 16 -10 16 -5 0
-10 -4 -10 -9z"/>
<path d="M3680 4452 c0 -14 31 -72 38 -72 4 0 16 -18 26 -40 18 -38 18 -43 3
-89 -17 -52 -14 -186 4 -197 5 -3 9 -14 9 -25 0 -24 29 -71 40 -64 5 3 2 29
-6 58 -18 67 -18 97 2 164 9 31 14 70 11 88 -11 65 -127 227 -127 177z"/>
<path d="M6426 4446 c-69 -74 -125 -204 -99 -230 30 -30 45 -197 21 -236 -16
-25 -2 -39 15 -16 38 52 43 137 21 319 -3 26 -2 47 3 47 5 0 15 16 23 35 18
46 34 45 28 -3 -4 -24 0 -45 8 -57 12 -17 14 -11 14 48 0 37 7 83 14 102 21
49 2 45 -48 -9z"/>
<path d="M5340 3130 c0 -5 4 -10 9 -10 6 0 13 5 16 10 3 6 -1 10 -9 10 -9 0
-16 -4 -16 -10z"/>
<path d="M4745 3110 c3 -5 15 -10 26 -10 10 0 19 5 19 10 0 6 -12 10 -26 10
-14 0 -23 -4 -19 -10z"/>
<path d="M5346 2675 c4 -8 8 -15 10 -15 2 0 4 7 4 15 0 8 -4 15 -10 15 -5 0
-7 -7 -4 -15z"/>
<path d="M3180 1609 c0 -5 5 -7 10 -4 6 3 10 8 10 11 0 2 -4 4 -10 4 -5 0 -10
-5 -10 -11z"/>
<path d="M3833 1428 c-8 -14 -42 -109 -43 -120 0 -5 20 -8 44 -8 40 0 45 3 55
31 16 46 14 66 -9 89 -23 23 -36 25 -47 8z"/>
<path d="M3720 1124 c-27 -83 -23 -94 32 -94 33 0 58 33 65 88 5 34 2 42 -22
60 -15 12 -33 22 -39 22 -6 0 -22 -34 -36 -76z"/>
<path d="M4385 1268 c-12 -40 -35 -128 -35 -137 0 -6 16 -11 35 -11 29 0 39 6
55 33 27 44 26 92 -2 111 -27 19 -47 20 -53 4z"/>
</g>
</svg>
